<svg id="search" xmlns="http://www.w3.org/2000/svg" xmlns:xlink="http://www.w3.org/1999/xlink" width="14.858" height="14.858" viewBox="0 0 14.858 14.858">
  <defs>
    <style>
      .cls-1 {
        fill: url(#linear-gradient);
      }
    </style>
    <linearGradient id="linear-gradient" x1="1.462" y1="-0.768" x2="-0.734" y2="2.526" gradientUnits="objectBoundingBox">
      <stop offset="0" stop-color="#59ddb9"/>
      <stop offset="1" stop-color="#23b3d1"/>
    </linearGradient>
  </defs>
  <path id="Tracé_484" data-name="Tracé 484" class="cls-1" d="M35.657,34.573l-2.773-2.744a6.684,6.684,0,0,0-.5-8.875A6.674,6.674,0,0,0,22.956,32.4a6.682,6.682,0,0,0,8.888.494l2.748,2.744a.713.713,0,0,0,.52.222.675.675,0,0,0,.52-.222A.769.769,0,0,0,35.657,34.573Zm-2.773-6.9a5.08,5.08,0,0,1-1.535,3.659,5.24,5.24,0,0,1-3.664,1.533,5.1,5.1,0,0,1-3.664-1.533,5.225,5.225,0,0,1-1.535-3.659,5.08,5.08,0,0,1,1.535-3.659,5.2,5.2,0,0,1,3.664-1.533,5.1,5.1,0,0,1,3.664,1.533A5.181,5.181,0,0,1,32.884,27.675Z" transform="translate(-21 -21)"/>
</svg>
