<svg xmlns="http://www.w3.org/2000/svg" width="96" height="83.2" viewBox="0 0 96 83.2">
  <g id="noun_PDF_1242090" transform="translate(-2 -9.5)">
    <path id="Tracé_83" data-name="Tracé 83" d="M14.7,27.2,2.2,27.1,19.3,9.6l-.1,13A4.634,4.634,0,0,1,14.7,27.2ZM51.6,66.4c3.8.3,8.3,1.3,9.5,4.1a4.553,4.553,0,0,1-.5,4.4,2.351,2.351,0,0,1-2.1,1.2h0c-.7,0-2.9,0-8.3-6.7H48.6a3.808,3.808,0,0,0-1.3.1,59.461,59.461,0,0,0-18.6,6c-.4.7-.7,1.4-1.1,2a9.224,9.224,0,0,1-.5.8C23.9,83.9,20.4,89,17.3,89a2.806,2.806,0,0,1-2.4-1.3,4.3,4.3,0,0,1-.8-3.1c.5-3.1,4-5.9,7.1-8l.1-.1c1.6-1.1,3.4-2.2,5.2-3.2C29,68,31.2,60.5,32.9,53.8H32a7.6,7.6,0,0,1-7.6-7.6V23.1A7.6,7.6,0,0,1,32,15.5H69.4v-.9a5.231,5.231,0,0,0-5.3-5.1H22.2l-.1,13.1a7.576,7.576,0,0,1-7.5,7.6H2V87.6a5.231,5.231,0,0,0,5.3,5.1h62c.1-2.6.1-21,.2-39.2H43.1A125.221,125.221,0,0,0,51.6,66.4Zm-11.8-13H36a123.682,123.682,0,0,1-5.3,17.5l.3-.1-.1.2A65.367,65.367,0,0,1,47,66.3c.2,0,.5-.1.8-.1l-.1-.2h.1A118.213,118.213,0,0,1,39.8,53.4ZM58.7,71.8c-.3-.7-1.7-1.5-4.1-2,2.1,2.3,3.4,3.1,3.9,3.2A1.884,1.884,0,0,0,58.7,71.8ZM58.6,73h0v0ZM17.1,84.8a1.2,1.2,0,0,0,.2.8c.1.2.2.2.2.2.7,0,2.4-1,6.4-7.6a5.547,5.547,0,0,0-.8.6l-.1.1C19.3,81.3,17.3,83.4,17.1,84.8Zm46.5-55H62.4v8.4h1.2a5.149,5.149,0,0,0,2.1-.3,2.048,2.048,0,0,0,1-1.2,8.052,8.052,0,0,0,.4-2.7,5.632,5.632,0,0,0-.8-3.4A3.777,3.777,0,0,0,63.6,29.8Zm-15.4-.3H46.8v3.4H48a2.887,2.887,0,0,0,1.9-.5,1.425,1.425,0,0,0,.6-1.2A1.656,1.656,0,0,0,50,30C49.7,29.6,49.1,29.5,48.2,29.5ZM98,23.9V45.1a5.121,5.121,0,0,1-5.1,5.1H33a5.121,5.121,0,0,1-5.1-5.1V23.9A5.121,5.121,0,0,1,33,18.8H93A5.037,5.037,0,0,1,98,23.9ZM55.1,31.1a4.459,4.459,0,0,0-1.3-3.5,5.689,5.689,0,0,0-3.9-1.2H42V41.8h4.8V36h2.6a5.987,5.987,0,0,0,4.3-1.3A4.9,4.9,0,0,0,55.1,31.1ZM71.9,34a9.476,9.476,0,0,0-.4-3,9.65,9.65,0,0,0-1.2-2.5,5.367,5.367,0,0,0-2.1-1.6,8.286,8.286,0,0,0-3.4-.6H57.7V41.7h7.1a9.935,9.935,0,0,0,2.8-.4,4.45,4.45,0,0,0,2.1-1.2,6.342,6.342,0,0,0,1.6-2.3A9.733,9.733,0,0,0,71.9,34Zm14.3-7.7H74.4V41.7h4.8V35.4h6V32.3h-6V29.6h7V26.3Z"/>
  </g>
</svg>
