<svg xmlns="http://www.w3.org/2000/svg" width="2800" height="1080" viewBox="0 0 2800 1080">
    <defs>
        <linearGradient id="prefix__linear-gradient" x1="1.006" x2=".381" y1="-1.329" y2="1.258" gradientUnits="objectBoundingBox">
            <stop offset="0" stop-color="#4cbfc6"/>
            <stop offset=".308" stop-color="#0b50b9"/>
            <stop offset="1" stop-color="#032989"/>
        </linearGradient>
        <linearGradient id="prefix__linear-gradient-3" x1=".078" x2="1.795" y1=".936" y2="-1.867" gradientUnits="objectBoundingBox">
            <stop offset="0" stop-color="#eaecf0" stop-opacity="0"/>
            <stop offset=".597" stop-color="#eaecf0" stop-opacity=".227"/>
            <stop offset=".729" stop-color="#eaecf0" stop-opacity=".4"/>
            <stop offset="1" stop-color="#eaecf0"/>
        </linearGradient>
        <linearGradient id="prefix__linear-gradient-5" x1=".306" x2="1" gradientUnits="objectBoundingBox">
            <stop offset="0" stop-color="#20b1d3"/>
            <stop offset="1" stop-color="#5adeb9"/>
        </linearGradient>
        <linearGradient id="prefix__linear-gradient-6" x1="1.462" x2="-.734" y1="-.768" y2="2.526" gradientUnits="objectBoundingBox">
            <stop offset="0" stop-color="#59ddb9"/>
            <stop offset="1" stop-color="#23b3d1"/>
        </linearGradient>
        <linearGradient id="prefix__linear-gradient-7" x1="1.169" x2=".461" y1="-.337" y2="1" gradientUnits="objectBoundingBox">
            <stop offset="0" stop-color="#079dde"/>
            <stop offset=".446" stop-color="#0b50b9"/>
            <stop offset="1" stop-color="#032989"/>
        </linearGradient>
        <linearGradient id="prefix__linear-gradient-10" x1=".368" x2=".398" y1=".618" y2="1.161" gradientUnits="objectBoundingBox">
            <stop offset="0" stop-color="#004fc2" stop-opacity="0"/>
            <stop offset="1" stop-color="#61e3b6"/>
        </linearGradient>
        <linearGradient id="prefix__linear-gradient-11" x1=".5" x2=".5" y1="-.521" y2=".931" gradientUnits="objectBoundingBox">
            <stop offset=".427" stop-color="#0586d6"/>
            <stop offset=".906" stop-color="#004fc2"/>
        </linearGradient>
        <linearGradient id="prefix__linear-gradient-12" x1=".5" x2=".5" y1="-2.304" y2="1.07" gradientUnits="objectBoundingBox">
            <stop offset=".592" stop-color="#61e3b6"/>
            <stop offset=".768" stop-color="#0586d6"/>
            <stop offset=".786" stop-color="#047dd3"/>
            <stop offset=".852" stop-color="#0164c9"/>
            <stop offset=".912" stop-color="#0054c3"/>
            <stop offset=".959" stop-color="#004fc2"/>
        </linearGradient>
        <linearGradient id="prefix__linear-gradient-13" x1="1.109" x2="-.402" y1=".5" y2=".5" gradientUnits="objectBoundingBox">
            <stop offset="0" stop-color="#61e3b6"/>
            <stop offset=".484" stop-color="#35c1c9"/>
            <stop offset="1" stop-color="#079dde"/>
        </linearGradient>
        <clipPath id="prefix__clip-path">
            <path id="prefix__bkg-header" d="M0 0H1920V372H0z" class="prefix__cls-1"/>
        </clipPath>
        <clipPath id="prefix__clip-path-2">
            <path id="prefix__bkg-header-2" d="M0 0H761V1080H0z" class="prefix__cls-2" data-name="bkg-header" transform="translate(94)"/>
        </clipPath>
        <clipPath id="prefix__clip-CVTI-web-Assets">
            <path d="M0 0H2800V1080H0z"/>
        </clipPath>
        <filter id="prefix__bkg" width="292" height="292" x="658" y="754" filterUnits="userSpaceOnUse">
            <feOffset dy="32"/>
            <feGaussianBlur result="blur" stdDeviation="32"/>
            <feFlood flood-opacity=".161"/>
            <feComposite in2="blur" operator="in"/>
            <feComposite in="SourceGraphic"/>
        </filter>
        <filter id="prefix__bkg-2" width="292" height="292" x="492" y="754" filterUnits="userSpaceOnUse">
            <feOffset dy="32"/>
            <feGaussianBlur result="blur-2" stdDeviation="32"/>
            <feFlood flood-opacity=".161"/>
            <feComposite in2="blur-2" operator="in"/>
            <feComposite in="SourceGraphic"/>
        </filter>
        <filter id="prefix__bkg-content" width="410" height="222" x="843" y="780" filterUnits="userSpaceOnUse">
            <feOffset dx="20" dy="23"/>
            <feGaussianBlur result="blur-3" stdDeviation="27"/>
            <feFlood flood-opacity=".161"/>
            <feComposite in2="blur-3" operator="in"/>
            <feComposite in="SourceGraphic"/>
        </filter>
        <style>
            .prefix__cls-1{fill:url(#prefix__linear-gradient)}.prefix__cls-2{fill:#171717}.prefix__cls-4{fill:#004fc2}.prefix__cls-7{fill:#eaecf0}.prefix__cls-9{fill:#c9c9c9}.prefix__cls-12{fill:#e49819}.prefix__cls-13,.prefix__cls-19{fill:#33b5ae}.prefix__cls-14{fill:#ddf5f4}.prefix__cls-17{fill:url(#prefix__linear-gradient-3)}.prefix__cls-19{stroke:#33b5ae;stroke-width:.5px}.prefix__cls-21{fill:#fff}.prefix__cls-23,.prefix__cls-26,.prefix__cls-44{fill:none}.prefix__cls-23{stroke:#fff}.prefix__cls-23,.prefix__cls-26{stroke-linecap:round}.prefix__cls-23{stroke-width:2px}.prefix__cls-26{stroke:#525252;stroke-width:3px}.prefix__cls-33{fill:#4cbfc6}.prefix__cls-34{fill:#032989}.prefix__cls-43{stroke:none}
        </style>
    </defs>
    <g id="prefix__CVTI-web-Assets">
        <path d="M0 0H2800V1080H0z" class="prefix__cls-21"/>
        <path id="prefix__bkg-logo" d="M0 0h488.5A59.5 59.5 0 0 1 548 59.5a59.5 59.5 0 0 1-59.5 59.5H0V0z" class="prefix__cls-4" transform="translate(0 808)"/>
        <g id="prefix__colors">
            <path id="prefix__color" d="M0 0H281V129H0z" transform="translate(1091 537)" style="fill:#909090"/>
            <path id="prefix__color-2" d="M0 0H274V129H0z" data-name="color" transform="translate(548 537)" style="fill:#e8e8e8"/>
            <path id="prefix__color-3" d="M0 0h266a8 8 0 0 1 8 8v113a8 8 0 0 1-8 8H0V0z" class="prefix__cls-2" data-name="color" transform="translate(1646 537)"/>
            <path id="prefix__color-4" d="M0 0H274V129H0z" class="prefix__cls-7" data-name="color" transform="translate(274 537)"/>
            <path id="prefix__color-5" d="M0 0H274V129H0z" data-name="color" transform="translate(1372 537)" style="fill:#525252"/>
            <path id="prefix__color-6" d="M0 0H269V129H0z" class="prefix__cls-9" data-name="color" transform="translate(822 537)"/>
            <path id="prefix__color-7" d="M0 0H274V129H0z" data-name="color" transform="translate(0 537)" style="fill:#f7f9fc"/>
            <path id="prefix__color-8" d="M0 0H321V129H0z" class="prefix__cls-4" data-name="color" transform="translate(1286 371)"/>
            <path id="prefix__color-9" d="M0 0H322V129H0z" data-name="color" transform="translate(964 371)" style="fill:#079dde"/>
            <path id="prefix__color-10" d="M0 0h313v121a8 8 0 0 1-8 8H0V0z" class="prefix__cls-12" data-name="color" transform="translate(1607 371)"/>
            <path id="prefix__color-11" d="M0 0H330V129H0z" class="prefix__cls-13" data-name="color" transform="translate(634 371)"/>
            <path id="prefix__color-12" d="M0 0H321V129H0z" class="prefix__cls-14" data-name="color" transform="translate(0 371)"/>
            <path id="prefix__color-13" d="M0 0H313V129H0z" data-name="color" transform="translate(321 371)" style="fill:#61e3b6"/>
        </g>
        <g id="prefix__bkg-header-3" data-name="bkg-header">
            <g id="prefix__bkg-header-4" data-name="bkg-header">
                <path id="prefix__bkg-header-5" d="M0 0H1920V372H0z" class="prefix__cls-1" data-name="bkg-header"/>
                <path id="prefix__Tracé_485" d="M575.253 295.915s-6.1-109.7-195.023 0c0 0-202.059 134.085-503.271 134.085 0 0-8.671 100.553 12.658 115.791 0 0 277.3 94.469 685.635-182.834z" class="prefix__cls-17" data-name="Tracé 485" transform="translate(1450.784 -48.927)"/>
                <path id="prefix__Tracé_486" d="M-124.363 531.607S95.506 534.656 278.347 428s182.834-103.612 234.638-103.612c0 0-188.932-170.645-420.521-60.945s-216.827 268.164-216.827 268.164z" class="prefix__cls-17" data-name="Tracé 486" transform="translate(1452.107 -165.772)"/>
            </g>
        </g>
        <g id="prefix__hoveractive" transform="translate(40 743)">
            <rect id="prefix__hoveractive-2" width="80" height="2.5" data-name="hoveractive" rx="1.25"/>
        </g>
        <g id="prefix__picto-design" transform="translate(170 729)">
            <g id="prefix__Groupe_16" data-name="Groupe 16" transform="translate(4.532 3.263)">
                <g id="prefix__Groupe_15" data-name="Groupe 15">
                    <path id="prefix__Tracé_445" d="M82.894 60.33a8.616 8.616 0 1 0 2.525 6.094 8.565 8.565 0 0 0-2.525-6.094zm-11.5.694a7.641 7.641 0 0 1 12.935 4.13l-2.672 2.616a1.747 1.747 0 0 0-2.311.553l-3.934-1.233v-.034a1.749 1.749 0 1 0-3.268.867l-2.064 2.138a7.649 7.649 0 0 1 1.32-9.037zm10.17 8.27a.768.768 0 1 1-.768-.767.768.768 0 0 1 .772.767zm-7.136-2.239a.768.768 0 1 1-.768-.767.768.768 0 0 1 .772.767zm7.772 4.769a7.642 7.642 0 0 1-11.579-.908l2.231-2.316a1.747 1.747 0 0 0 2.266-.578l3.933 1.234v.034a1.749 1.749 0 1 0 3.293-.822l2.094-2.047a7.586 7.586 0 0 1-2.238 5.403z" class="prefix__cls-19" data-name="Tracé 445" transform="translate(-68.183 -57.806)"/>
                </g>
            </g>
            <g id="prefix__Groupe_18" data-name="Groupe 18" transform="translate(8.801 5.255)">
                <g id="prefix__Groupe_17" data-name="Groupe 17">
                    <path id="prefix__Tracé_446" d="M132.414 89.4l.644.741a5.668 5.668 0 0 1 5.57-1.064l.323-.927a6.653 6.653 0 0 0-6.537 1.25z" class="prefix__cls-19" data-name="Tracé 446" transform="translate(-132.414 -87.783)"/>
                </g>
            </g>
            <g id="prefix__Groupe_20" data-name="Groupe 20" transform="translate(16.088 6.219)">
                <g id="prefix__Groupe_19" data-name="Groupe 19">
                    <path id="prefix__Tracé_447" d="M242.557 102.292l-.511.838a5.637 5.637 0 0 1 .741.539l.64-.744a6.635 6.635 0 0 0-.87-.633z" class="prefix__cls-19" data-name="Tracé 447" transform="translate(-242.046 -102.292)"/>
                </g>
            </g>
            <g id="prefix__Groupe_22" data-name="Groupe 22" transform="translate(10.674 17.12)">
                <g id="prefix__Groupe_21" data-name="Groupe 21">
                    <path id="prefix__Tracé_448" d="M164.246 266.64a5.661 5.661 0 0 1-3.283-.283l-.365.911a6.646 6.646 0 0 0 3.851.332z" class="prefix__cls-19" data-name="Tracé 448" transform="translate(-160.598 -266.357)"/>
                </g>
            </g>
            <g id="prefix__Groupe_24" data-name="Groupe 24">
                <g id="prefix__Groupe_23" data-name="Groupe 23">
                    <path id="prefix__Tracé_449" d="M27.591 12.559a1.748 1.748 0 0 0-2.412 2.358L24.1 15.968A11.889 11.889 0 1 0 3.388 27.374l-.827.857a1.752 1.752 0 1 0 .706.682l.722-.748q.353.426.751.825a11.912 11.912 0 0 0 15.09 1.427l1.77 1.893-.737.737 8.588 8.553 4.579-4.578-8.585-8.553-.713.713-1.768-1.89a11.921 11.921 0 0 0 1.511-10.313l1.4-1.372a1.748 1.748 0 0 0 2.387-2.333 2.113 2.113 0 0 0-.671-.715zm-.885.74a.767.767 0 1 1-.768.767.768.768 0 0 1 .769-.766zM1.749 30.546a.767.767 0 1 1 .768-.767.768.768 0 0 1-.768.767zm3.686-2.252a10.906 10.906 0 1 1 15.426 0 10.915 10.915 0 0 1-15.426.001zm15.189 1.532a11.959 11.959 0 0 0 1.743-1.736l1.671 1.785-1.74 1.74zm8.826 10.386l-7.194-7.167 3.191-3.19 7.194 7.167z" class="prefix__cls-19" data-name="Tracé 449" transform="translate(0 -8.704)"/>
                </g>
            </g>
            <g id="prefix__Groupe_26" data-name="Groupe 26" transform="translate(24.041 22.577)">
                <g id="prefix__Groupe_25" data-name="Groupe 25">
                    <path id="prefix__Tracé_450" d="M363.114 348.478l-1.4 1.4.694.694.711-.71 2.71 2.709.694-.694z" class="prefix__cls-19" data-name="Tracé 450" transform="translate(-361.709 -348.478)"/>
                </g>
            </g>
            <g id="prefix__Groupe_28" data-name="Groupe 28" transform="translate(28.997 26.819)">
                <g id="prefix__Groupe_27" data-name="Groupe 27">
                    <path id="prefix__Tracé_453" d="M0 0h.981v1.029H0z" class="prefix__cls-19" data-name="Tracé 453" transform="rotate(-45 .838 .347)"/>
                </g>
            </g>
            <g id="prefix__Groupe_30" data-name="Groupe 30" transform="translate(5.319 24.264)">
                <g id="prefix__Groupe_29" data-name="Groupe 29">
                    <rect id="prefix__Rectangle_626" width=".982" height="1.069" class="prefix__cls-19" data-name="Rectangle 626" rx=".491"/>
                </g>
            </g>
            <g id="prefix__Groupe_32" data-name="Groupe 32" transform="translate(5.319 30.257)">
                <g id="prefix__Groupe_31" data-name="Groupe 31">
                    <rect id="prefix__Rectangle_627" width=".982" height="1.069" class="prefix__cls-19" data-name="Rectangle 627" rx=".491"/>
                </g>
            </g>
            <g id="prefix__Groupe_34" data-name="Groupe 34" transform="translate(13.405 26.326)">
                <g id="prefix__Groupe_33" data-name="Groupe 33">
                    <rect id="prefix__Rectangle_628" width=".982" height="1.069" class="prefix__cls-19" data-name="Rectangle 628" rx=".491"/>
                </g>
            </g>
            <g id="prefix__Groupe_36" data-name="Groupe 36" transform="translate(27.474 17.499)">
                <g id="prefix__Groupe_35" data-name="Groupe 35">
                    <rect id="prefix__Rectangle_629" width=".982" height="1.069" class="prefix__cls-19" data-name="Rectangle 629" rx=".491"/>
                </g>
            </g>
            <g id="prefix__Groupe_38" data-name="Groupe 38" transform="translate(28.588 8.982)">
                <g id="prefix__Groupe_37" data-name="Groupe 37">
                    <rect id="prefix__Rectangle_630" width=".982" height="1.069" class="prefix__cls-19" data-name="Rectangle 630" rx=".491"/>
                </g>
            </g>
            <g id="prefix__Groupe_40" data-name="Groupe 40" transform="translate(31.842 13.492)">
                <g id="prefix__Groupe_39" data-name="Groupe 39">
                    <rect id="prefix__Rectangle_631" width=".982" height="1.069" class="prefix__cls-19" data-name="Rectangle 631" rx=".491"/>
                </g>
            </g>
        </g>
        <g id="prefix__picto-design-1" transform="translate(254 729)">
            <g id="prefix__picto_chantier" data-name="picto chantier" transform="translate(19 8.858)">
                <path id="prefix__picto_chantier-2" d="M18.523 12.812a.816.816 0 0 0-.818.624.856.856 0 0 0 .6 1.009.6.6 0 0 0 .218.027.843.843 0 0 0 .79-.6.87.87 0 0 0-.6-1.036h-.028a.8.8 0 0 0-.162-.024zm13.763.026a.871.871 0 0 0-.164.025h-.027a.8.8 0 0 0-.545 1.009.843.843 0 0 0 .791.6c.082 0 .163-.027.218-.027a.825.825 0 0 0 .572-1.009.814.814 0 0 0-.845-.597zM36.922 14a.832.832 0 0 0-.549 1.432.757.757 0 0 0 .572.218.819.819 0 0 0 .573-1.418.833.833 0 0 0-.596-.232zm-23.022.063a.832.832 0 1 0 .558 1.418l.028-.027a.791.791 0 0 0 0-1.145.827.827 0 0 0-.586-.246zm7.916 2.123a.754.754 0 0 0-.163.032.825.825 0 0 0-.572 1.009.812.812 0 0 0 .79.628.464.464 0 0 0 .191-.028.813.813 0 0 0 .6-.982v-.027a.829.829 0 0 0-.843-.632zm-4.551 0a2.046 2.046 0 1 0 2.044 2.046 2.045 2.045 0 0 0-2.041-2.042zm16.352 0a2.046 2.046 0 1 0 2.044 2.046 2.045 2.045 0 0 0-2.04-2.042zm-4.57 0a.835.835 0 0 0-.826.623v.027a.818.818 0 0 0 .573.982.463.463 0 0 0 .191.028.812.812 0 0 0 .79-.628.837.837 0 0 0-.572-1.009.723.723 0 0 0-.153-.014zm9.231 2.345a.816.816 0 0 0-.818.624v.027a.814.814 0 0 0 .6.982.462.462 0 0 0 .19.027.79.79 0 0 0 .79-.627l-.79-.218.79.191a.813.813 0 0 0-.6-.982.8.8 0 0 0-.159-.015zm-25.647.109a.8.8 0 0 0-.163.023.813.813 0 0 0-.6.982v.055a.843.843 0 0 0 .791.6.6.6 0 0 0 .218-.028.825.825 0 0 0 .572-1.009.816.816 0 0 0-.814-.613zm-.268 4.26A1.35 1.35 0 0 0 11 24.265v8.455a1.367 1.367 0 0 0 1.363 1.364h26.163a1.35 1.35 0 0 0 1.363-1.364v-8.455a1.35 1.35 0 0 0-1.363-1.365zm.273 1.637h5.342l-5.342 6.518zm7.441 0h6.84l-6.786 7.91h-6.515zm8.994 0h7.113l-6.784 7.91h-7.117zm9.184.082v7.8h-6.68zM17.268 34.9a.8.8 0 0 0-.818.818v6.273a.8.8 0 0 0 .818.818.82.82 0 0 0 .818-.818V35.72a.8.8 0 0 0-.818-.82zm16.352 0a.8.8 0 0 0-.818.818v6.273a.8.8 0 0 0 .818.818.82.82 0 0 0 .818-.818V35.72a.8.8 0 0 0-.817-.82z" class="prefix__cls-13" data-name="picto chantier" transform="translate(-11 -12.812)"/>
            </g>
            <g id="prefix__Composant_37_1" data-name="Composant 37 – 1">
                <path id="prefix__Tracé_489" d="M560.533 289.471h9.787a.508.508 0 0 0 0-1.017h-9.787a.508.508 0 1 0 0 1.017z" class="prefix__cls-19" data-name="Tracé 489" transform="translate(-556.702 -273.263)"/>
                <path id="prefix__Tracé_490" d="M569.878 281.21h10.867a.508.508 0 0 0 0-1.017h-10.867a.508.508 0 1 0 0 1.017z" class="prefix__cls-19" data-name="Tracé 490" transform="translate(-556.702 -273.263)"/>
                <path id="prefix__Tracé_491" d="M588.786 273.263H560.77a4.068 4.068 0 0 0-4.068 4.068V299.2a4.068 4.068 0 0 0 4.068 4.068h28.016a4.068 4.068 0 0 0 4.068-4.068v-21.869a4.068 4.068 0 0 0-4.068-4.068zm3.052 25.929a3.045 3.045 0 0 1-2.9 3.036l-28.17.015a3.05 3.05 0 0 1-3.051-3.051v-21.861a3.15 3.15 0 0 1 2.1-2.9 2.6 2.6 0 0 1 .954-.152h28.013a3.051 3.051 0 0 1 3.052 3.051z" class="prefix__cls-19" data-name="Tracé 491" transform="translate(-556.702 -273.263)"/>
                <path id="prefix__Tracé_492" d="M570.32 293.154h-9.787a.508.508 0 1 0 0 1.017h9.787a.508.508 0 0 0 0-1.017z" class="prefix__cls-19" data-name="Tracé 492" transform="translate(-556.702 -273.263)"/>
            </g>
        </g>
        <g id="prefix__picto-design-2" transform="translate(352 729)">
            <path id="prefix__Tracé_455" d="M44.585 20.5H16.568a4.068 4.068 0 0 0-4.068 4.068v21.864a4.068 4.068 0 0 0 4.068 4.068h28.017a4.068 4.068 0 0 0 4.068-4.068V24.568a4.068 4.068 0 0 0-4.068-4.068zm-.863 28.983h-10.8V47.7a5.4 5.4 0 1 1 10.8 0zm-5.4-8.2a3.625 3.625 0 1 1 3.625-3.625v.005a3.626 3.626 0 0 1-3.625 3.623zm9.314 5.146a3.051 3.051 0 0 1-3.051 3.051h.154V47.7a6.417 6.417 0 0 0-4.154-5.995 4.642 4.642 0 1 0-4.531 0 6.422 6.422 0 0 0-4.149 5.995v1.78H16.568a3.051 3.051 0 0 1-3.051-3.051V24.568a3.152 3.152 0 0 1 2.1-2.9 2.6 2.6 0 0 1 .954-.152h28.014a3.051 3.051 0 0 1 3.051 3.051zm-10.585-18.49a.509.509 0 0 1-.508.508H25.676a.508.508 0 0 1 0-1.017h10.866a.509.509 0 0 1 .509.509zM26.627 36.2a.509.509 0 0 1-.508.508h-9.788a.508.508 0 0 1 0-1.017h9.788a.509.509 0 0 1 .508.509zm0 4.7a.509.509 0 0 1-.508.508h-9.788a.508.508 0 1 1 0-1.017h9.788a.509.509 0 0 1 .508.514z" class="prefix__cls-19" data-name="Tracé 455" transform="translate(-12.5 -20.5)"/>
        </g>
        <g id="prefix__element-design" transform="translate(754 818)">
            <g transform="translate(-754 -818)">
                <g id="prefix__bkg-3" data-name="bkg" transform="translate(754 818)" style="stroke:#f7f9fc;stroke-width:6px;fill:#e49819">
                    <circle cx="50" cy="50" r="50" class="prefix__cls-43"/>
                    <circle cx="50" cy="50" r="47" class="prefix__cls-44"/>
                </g>
            </g>
            <path id="prefix__Polygone_2" d="M12.5 3.744a3 3 0 0 1 4.992 0l9.394 14.092a3 3 0 0 1-2.5 4.664H5.606a3 3 0 0 1-2.5-4.664z" class="prefix__cls-21" data-name="Polygone 2" transform="rotate(90 14.554 49.554)"/>
        </g>
        <g id="prefix__search" transform="translate(1202 860)">
            <path id="prefix__Tracé_484" d="M35.657 34.573l-2.773-2.744a6.684 6.684 0 0 0-.5-8.875 6.674 6.674 0 0 0-9.428 9.446 6.682 6.682 0 0 0 8.888.494l2.748 2.744a.713.713 0 0 0 .52.222.675.675 0 0 0 .52-.222.769.769 0 0 0 .025-1.065zm-2.773-6.9a5.08 5.08 0 0 1-1.535 3.659 5.24 5.24 0 0 1-3.664 1.533 5.1 5.1 0 0 1-3.664-1.533 5.225 5.225 0 0 1-1.535-3.659 5.08 5.08 0 0 1 1.535-3.659 5.2 5.2 0 0 1 3.664-1.533 5.1 5.1 0 0 1 3.664 1.533 5.181 5.181 0 0 1 1.535 3.661z" data-name="Tracé 484" transform="translate(-21 -21)"/>
        </g>
        <g id="prefix__arrow-1" transform="translate(35 863)">
            <path id="prefix__Tracé_472" d="M0 6.76h6.76L0 0z" class="prefix__cls-21" data-name="Tracé 472" transform="rotate(-135 4.37 3.79)"/>
        </g>
        <g id="prefix__arrow-2" transform="translate(75 865)">
            <path id="prefix__Ligne_76" d="M0 0L5 5" class="prefix__cls-23" data-name="Ligne 76"/>
            <path id="prefix__Tracé_456" d="M5 0L0 5" class="prefix__cls-23" data-name="Tracé 456" transform="translate(5)"/>
        </g>
        <g id="prefix__picto-dashboard" transform="translate(438 728)">
            <rect id="prefix__Rectangle_632" width="14.182" height="9.818" class="prefix__cls-4" data-name="Rectangle 632" rx="1"/>
            <rect id="prefix__Rectangle_635" width="14.182" height="8.182" class="prefix__cls-4" data-name="Rectangle 635" rx="1" transform="translate(15.818 21.818)"/>
            <rect id="prefix__Rectangle_633" width="14.182" height="19.091" class="prefix__cls-4" data-name="Rectangle 633" rx="1" transform="translate(0 10.909)"/>
            <rect id="prefix__Rectangle_634" width="14.182" height="20.727" class="prefix__cls-4" data-name="Rectangle 634" rx="1" transform="translate(15.818)"/>
        </g>
        <g id="prefix__picto-dashboard-select" transform="translate(852 728)">
            <rect id="prefix__Rectangle_632-2" width="14.182" height="9.818" class="prefix__cls-13" data-name="Rectangle 632" rx="1"/>
            <rect id="prefix__Rectangle_635-2" width="14.182" height="8.182" class="prefix__cls-13" data-name="Rectangle 635" rx="1" transform="translate(15.818 21.818)"/>
            <rect id="prefix__Rectangle_633-2" width="14.182" height="19.091" class="prefix__cls-13" data-name="Rectangle 633" rx="1" transform="translate(0 10.909)"/>
            <rect id="prefix__Rectangle_634-2" width="14.182" height="20.727" class="prefix__cls-13" data-name="Rectangle 634" rx="1" transform="translate(15.818)"/>
        </g>
        <g id="prefix__picto-chantier" transform="translate(518 728)">
            <path id="prefix__picto_chantier-3" d="M18.523 12.812a.816.816 0 0 0-.818.624.856.856 0 0 0 .6 1.009.6.6 0 0 0 .218.027.843.843 0 0 0 .79-.6.87.87 0 0 0-.6-1.036h-.028a.8.8 0 0 0-.162-.024zm13.763.026a.871.871 0 0 0-.164.025h-.027a.8.8 0 0 0-.545 1.009.843.843 0 0 0 .791.6c.082 0 .163-.027.218-.027a.825.825 0 0 0 .572-1.009.814.814 0 0 0-.845-.597zM36.922 14a.832.832 0 0 0-.549 1.432.757.757 0 0 0 .572.218.819.819 0 0 0 .573-1.418.833.833 0 0 0-.596-.232zm-23.022.063a.832.832 0 1 0 .558 1.418l.028-.027a.791.791 0 0 0 0-1.145.827.827 0 0 0-.586-.246zm7.916 2.123a.754.754 0 0 0-.163.032.825.825 0 0 0-.572 1.009.812.812 0 0 0 .79.628.464.464 0 0 0 .191-.028.813.813 0 0 0 .6-.982v-.027a.829.829 0 0 0-.843-.632zm-4.551 0a2.046 2.046 0 1 0 2.044 2.046 2.045 2.045 0 0 0-2.041-2.042zm16.352 0a2.046 2.046 0 1 0 2.044 2.046 2.045 2.045 0 0 0-2.04-2.042zm-4.57 0a.835.835 0 0 0-.826.623v.027a.818.818 0 0 0 .573.982.463.463 0 0 0 .191.028.812.812 0 0 0 .79-.628.837.837 0 0 0-.572-1.009.723.723 0 0 0-.153-.014zm9.231 2.345a.816.816 0 0 0-.818.624v.027a.814.814 0 0 0 .6.982.462.462 0 0 0 .19.027.79.79 0 0 0 .79-.627l-.79-.218.79.191a.813.813 0 0 0-.6-.982.8.8 0 0 0-.159-.015zm-25.647.109a.8.8 0 0 0-.163.023.813.813 0 0 0-.6.982v.055a.843.843 0 0 0 .791.6.6.6 0 0 0 .218-.028.825.825 0 0 0 .572-1.009.816.816 0 0 0-.814-.613zm-.268 4.26A1.35 1.35 0 0 0 11 24.265v8.455a1.367 1.367 0 0 0 1.363 1.364h26.163a1.35 1.35 0 0 0 1.363-1.364v-8.455a1.35 1.35 0 0 0-1.363-1.365zm.273 1.637h5.342l-5.342 6.518zm7.441 0h6.84l-6.786 7.91h-6.515zm8.994 0h7.113l-6.784 7.91h-7.117zm9.184.082v7.8h-6.68zM17.268 34.9a.8.8 0 0 0-.818.818v6.273a.8.8 0 0 0 .818.818.82.82 0 0 0 .818-.818V35.72a.8.8 0 0 0-.818-.82zm16.352 0a.8.8 0 0 0-.818.818v6.273a.8.8 0 0 0 .818.818.82.82 0 0 0 .818-.818V35.72a.8.8 0 0 0-.817-.82z" class="prefix__cls-4" data-name="picto chantier" transform="translate(-11 -12.812)"/>
        </g>
        <g id="prefix__picto-chantier-select" transform="translate(932 728)">
            <path id="prefix__picto_chantier-4" d="M18.523 12.812a.816.816 0 0 0-.818.624.856.856 0 0 0 .6 1.009.6.6 0 0 0 .218.027.843.843 0 0 0 .79-.6.87.87 0 0 0-.6-1.036h-.028a.8.8 0 0 0-.162-.024zm13.763.026a.871.871 0 0 0-.164.025h-.027a.8.8 0 0 0-.545 1.009.843.843 0 0 0 .791.6c.082 0 .163-.027.218-.027a.825.825 0 0 0 .572-1.009.814.814 0 0 0-.845-.597zM36.922 14a.832.832 0 0 0-.549 1.432.757.757 0 0 0 .572.218.819.819 0 0 0 .573-1.418.833.833 0 0 0-.596-.232zm-23.022.063a.832.832 0 1 0 .558 1.418l.028-.027a.791.791 0 0 0 0-1.145.827.827 0 0 0-.586-.246zm7.916 2.123a.754.754 0 0 0-.163.032.825.825 0 0 0-.572 1.009.812.812 0 0 0 .79.628.464.464 0 0 0 .191-.028.813.813 0 0 0 .6-.982v-.027a.829.829 0 0 0-.843-.632zm-4.551 0a2.046 2.046 0 1 0 2.044 2.046 2.045 2.045 0 0 0-2.041-2.042zm16.352 0a2.046 2.046 0 1 0 2.044 2.046 2.045 2.045 0 0 0-2.04-2.042zm-4.57 0a.835.835 0 0 0-.826.623v.027a.818.818 0 0 0 .573.982.463.463 0 0 0 .191.028.812.812 0 0 0 .79-.628.837.837 0 0 0-.572-1.009.723.723 0 0 0-.153-.014zm9.231 2.345a.816.816 0 0 0-.818.624v.027a.814.814 0 0 0 .6.982.462.462 0 0 0 .19.027.79.79 0 0 0 .79-.627l-.79-.218.79.191a.813.813 0 0 0-.6-.982.8.8 0 0 0-.159-.015zm-25.647.109a.8.8 0 0 0-.163.023.813.813 0 0 0-.6.982v.055a.843.843 0 0 0 .791.6.6.6 0 0 0 .218-.028.825.825 0 0 0 .572-1.009.816.816 0 0 0-.814-.613zm-.268 4.26A1.35 1.35 0 0 0 11 24.265v8.455a1.367 1.367 0 0 0 1.363 1.364h26.163a1.35 1.35 0 0 0 1.363-1.364v-8.455a1.35 1.35 0 0 0-1.363-1.365zm.273 1.637h5.342l-5.342 6.518zm7.441 0h6.84l-6.786 7.91h-6.515zm8.994 0h7.113l-6.784 7.91h-7.117zm9.184.082v7.8h-6.68zM17.268 34.9a.8.8 0 0 0-.818.818v6.273a.8.8 0 0 0 .818.818.82.82 0 0 0 .818-.818V35.72a.8.8 0 0 0-.818-.82zm16.352 0a.8.8 0 0 0-.818.818v6.273a.8.8 0 0 0 .818.818.82.82 0 0 0 .818-.818V35.72a.8.8 0 0 0-.817-.82z" class="prefix__cls-13" data-name="picto chantier" transform="translate(-11 -12.812)"/>
        </g>
        <g id="prefix__picto-plan-daction" transform="translate(597 728)">
            <path id="prefix__Tracé_439" d="M29.163 4.38h-3.835l1.029-2.723a.548.548 0 0 0-.094-.469.418.418 0 0 0-.374-.188H14.76a.576.576 0 0 0-.374.188.458.458 0 0 0-.047.423l1.029 2.723h-3.835a1.83 1.83 0 0 0-1.824 1.83V12.5h-.42a.449.449 0 0 0-.421.329l-.608 1.739a4.4 4.4 0 0 0-1.076.469l-1.637-.8a.426.426 0 0 0-.514.094L3.771 15.6a.441.441 0 0 0-.094.516l.795 1.69A10.065 10.065 0 0 0 4 18.84l-1.777.61a.451.451 0 0 0-.327.423v1.784a.451.451 0 0 0 .327.423l1.824.657a7.846 7.846 0 0 0 .374.939l-.838 1.784a.43.43 0 0 0 .094.516l1.263 1.268a.437.437 0 0 0 .514.094l1.824-.845a6.231 6.231 0 0 0 .842.329l.655 1.925a.449.449 0 0 0 .421.329h.421v.094A1.83 1.83 0 0 0 11.44 31h17.63a1.83 1.83 0 0 0 1.824-1.831v-23a1.685 1.685 0 0 0-1.731-1.789zm-3.928-2.441c-.094.235-1.59 4.178-1.5 3.944h-6.777c-.047-.094-1.543-4.085-1.5-3.944zM8.961 26.352a.5.5 0 0 0-.327-.282 4.039 4.039 0 0 1-1.122-.47.35.35 0 0 0-.421 0l-1.73.845-.795-.8.795-1.69a.654.654 0 0 0 0-.423 6.4 6.4 0 0 1-.514-1.174.5.5 0 0 0-.281-.329l-1.73-.61v-1.17l1.683-.61a.4.4 0 0 0 .281-.329 5.133 5.133 0 0 1 .514-1.268.353.353 0 0 0 0-.423l-.7-1.6.795-.8L7 15.977a.646.646 0 0 0 .421 0 7.865 7.865 0 0 1 1.309-.563.5.5 0 0 0 .327-.282l.561-1.643h1.122l.561 1.643a.5.5 0 0 0 .327.282 6.486 6.486 0 0 1 1.309.563.35.35 0 0 0 .421 0l1.59-.751.795.8-.748 1.6a.654.654 0 0 0 0 .423 6 6 0 0 1 .514 1.268.5.5 0 0 0 .281.329l1.683.61v1.127l-1.73.61a.422.422 0 0 0-.281.282 4.457 4.457 0 0 1-.514 1.174.353.353 0 0 0 0 .423l.795 1.69-.795.8-1.73-.845a.646.646 0 0 0-.421 0 8.05 8.05 0 0 1-1.122.469.5.5 0 0 0-.327.282l-.655 1.831H9.569zm21.09 2.864a.89.89 0 0 1-.888.892h-17.63a.89.89 0 0 1-.888-.892v-.094h.421a.449.449 0 0 0 .421-.329l.655-1.925c.281-.094.608-.235.842-.329l1.824.845a.426.426 0 0 0 .514-.094l1.263-1.268a.441.441 0 0 0 .094-.516l-.842-1.784a5.609 5.609 0 0 0 .374-.939l1.824-.657a.451.451 0 0 0 .327-.423V19.92a.451.451 0 0 0-.327-.423l-1.685-.657a3.994 3.994 0 0 0-.421-1.033l.795-1.69a.43.43 0 0 0-.094-.516l-1.263-1.268a.437.437 0 0 0-.514-.094l-1.637.8a7.446 7.446 0 0 0-1.076-.469l-.608-1.737a.449.449 0 0 0-.421-.329h-.421v-6.34a.89.89 0 0 1 .888-.892h4.162l.468 1.221a.409.409 0 0 0 .421.282h7.482a.474.474 0 0 0 .421-.282L25 5.272h4.162a.89.89 0 0 1 .888.892z" class="prefix__cls-4" data-name="Tracé 439" transform="translate(-1.9 -1)"/>
            <path id="prefix__Tracé_440" d="M46.209 18.741a.451.451 0 0 0-.655 0l-1.683 1.69a.464.464 0 0 0 .655.657l.888-.892v6.573a1.51 1.51 0 0 1-1.5 1.5h-1.773a2.45 2.45 0 0 0-2.432 2.441v2.77a1.79 1.79 0 1 0 2.245 1.737 1.815 1.815 0 0 0-1.309-1.737v-2.77a1.51 1.51 0 0 1 1.5-1.5h1.777a2.45 2.45 0 0 0 2.432-2.441V20.2l.888.892a.464.464 0 1 0 .655-.657zm-5.144 16.432a.842.842 0 1 1-.842-.845.84.84 0 0 1 .842.845z" class="prefix__cls-4" data-name="Tracé 440" transform="translate(-21.332 -10.337)"/>
            <path id="prefix__Tracé_441" d="M55.246 45.141a.451.451 0 0 0-.655 0l-.748.751-.748-.751a.464.464 0 0 0-.655.657l.748.751-.748.751a.464.464 0 0 0 .655.657l.748-.751.748.751a.464.464 0 1 0 .655-.657l-.748-.751.748-.751a.455.455 0 0 0 0-.657z" class="prefix__cls-4" data-name="Tracé 441" transform="translate(-28.732 -24.343)"/>
            <path id="prefix__Tracé_442" d="M40.415 31.25a1.925 1.925 0 0 0 0-3.85 1.961 1.961 0 0 0-1.915 1.925 1.9 1.9 0 0 0 1.915 1.925zm0-2.958a.986.986 0 0 1 0 1.972 1.022 1.022 0 0 1-.982-.986.934.934 0 0 1 .982-.986z" class="prefix__cls-4" data-name="Tracé 442" transform="translate(-21.383 -15.006)"/>
            <path id="prefix__Tracé_443" d="M37.068 7.139h3.507a.469.469 0 0 0 0-.939h-3.507a.469.469 0 0 0 0 .939z" class="prefix__cls-4" data-name="Tracé 443" transform="translate(-20.373 -3.759)"/>
            <path id="prefix__Tracé_444" d="M19.218 39.97a2.759 2.759 0 1 0-5.518 0 2.8 2.8 0 0 0 2.759 2.77 2.77 2.77 0 0 0 2.759-2.77zm-4.583 0a1.824 1.824 0 1 1 1.824 1.83 1.861 1.861 0 0 1-1.824-1.83z" class="prefix__cls-4" data-name="Tracé 444" transform="translate(-8.182 -20.205)"/>
        </g>
        <g id="prefix__picto-plan-daction-select" transform="translate(1011 728)">
            <path id="prefix__Tracé_439-2" d="M29.163 4.38h-3.835l1.029-2.723a.548.548 0 0 0-.094-.469.418.418 0 0 0-.374-.188H14.76a.576.576 0 0 0-.374.188.458.458 0 0 0-.047.423l1.029 2.723h-3.835a1.83 1.83 0 0 0-1.824 1.83V12.5h-.42a.449.449 0 0 0-.421.329l-.608 1.739a4.4 4.4 0 0 0-1.076.469l-1.637-.8a.426.426 0 0 0-.514.094L3.771 15.6a.441.441 0 0 0-.094.516l.795 1.69A10.065 10.065 0 0 0 4 18.84l-1.777.61a.451.451 0 0 0-.327.423v1.784a.451.451 0 0 0 .327.423l1.824.657a7.846 7.846 0 0 0 .374.939l-.838 1.784a.43.43 0 0 0 .094.516l1.263 1.268a.437.437 0 0 0 .514.094l1.824-.845a6.231 6.231 0 0 0 .842.329l.655 1.925a.449.449 0 0 0 .421.329h.421v.094A1.83 1.83 0 0 0 11.44 31h17.63a1.83 1.83 0 0 0 1.824-1.831v-23a1.685 1.685 0 0 0-1.731-1.789zm-3.928-2.441c-.094.235-1.59 4.178-1.5 3.944h-6.777c-.047-.094-1.543-4.085-1.5-3.944zM8.961 26.352a.5.5 0 0 0-.327-.282 4.039 4.039 0 0 1-1.122-.47.35.35 0 0 0-.421 0l-1.73.845-.795-.8.795-1.69a.654.654 0 0 0 0-.423 6.4 6.4 0 0 1-.514-1.174.5.5 0 0 0-.281-.329l-1.73-.61v-1.17l1.683-.61a.4.4 0 0 0 .281-.329 5.133 5.133 0 0 1 .514-1.268.353.353 0 0 0 0-.423l-.7-1.6.795-.8L7 15.977a.646.646 0 0 0 .421 0 7.865 7.865 0 0 1 1.309-.563.5.5 0 0 0 .327-.282l.561-1.643h1.122l.561 1.643a.5.5 0 0 0 .327.282 6.486 6.486 0 0 1 1.309.563.35.35 0 0 0 .421 0l1.59-.751.795.8-.748 1.6a.654.654 0 0 0 0 .423 6 6 0 0 1 .514 1.268.5.5 0 0 0 .281.329l1.683.61v1.127l-1.73.61a.422.422 0 0 0-.281.282 4.457 4.457 0 0 1-.514 1.174.353.353 0 0 0 0 .423l.795 1.69-.795.8-1.73-.845a.646.646 0 0 0-.421 0 8.05 8.05 0 0 1-1.122.469.5.5 0 0 0-.327.282l-.655 1.831H9.569zm21.09 2.864a.89.89 0 0 1-.888.892h-17.63a.89.89 0 0 1-.888-.892v-.094h.421a.449.449 0 0 0 .421-.329l.655-1.925c.281-.094.608-.235.842-.329l1.824.845a.426.426 0 0 0 .514-.094l1.263-1.268a.441.441 0 0 0 .094-.516l-.842-1.784a5.609 5.609 0 0 0 .374-.939l1.824-.657a.451.451 0 0 0 .327-.423V19.92a.451.451 0 0 0-.327-.423l-1.685-.657a3.994 3.994 0 0 0-.421-1.033l.795-1.69a.43.43 0 0 0-.094-.516l-1.263-1.268a.437.437 0 0 0-.514-.094l-1.637.8a7.446 7.446 0 0 0-1.076-.469l-.608-1.737a.449.449 0 0 0-.421-.329h-.421v-6.34a.89.89 0 0 1 .888-.892h4.162l.468 1.221a.409.409 0 0 0 .421.282h7.482a.474.474 0 0 0 .421-.282L25 5.272h4.162a.89.89 0 0 1 .888.892z" class="prefix__cls-13" data-name="Tracé 439" transform="translate(-1.9 -1)"/>
            <path id="prefix__Tracé_440-2" d="M46.209 18.741a.451.451 0 0 0-.655 0l-1.683 1.69a.464.464 0 0 0 .655.657l.888-.892v6.573a1.51 1.51 0 0 1-1.5 1.5h-1.773a2.45 2.45 0 0 0-2.432 2.441v2.77a1.79 1.79 0 1 0 2.245 1.737 1.815 1.815 0 0 0-1.309-1.737v-2.77a1.51 1.51 0 0 1 1.5-1.5h1.777a2.45 2.45 0 0 0 2.432-2.441V20.2l.888.892a.464.464 0 1 0 .655-.657zm-5.144 16.432a.842.842 0 1 1-.842-.845.84.84 0 0 1 .842.845z" class="prefix__cls-13" data-name="Tracé 440" transform="translate(-21.332 -10.337)"/>
            <path id="prefix__Tracé_441-2" d="M55.246 45.141a.451.451 0 0 0-.655 0l-.748.751-.748-.751a.464.464 0 0 0-.655.657l.748.751-.748.751a.464.464 0 0 0 .655.657l.748-.751.748.751a.464.464 0 1 0 .655-.657l-.748-.751.748-.751a.455.455 0 0 0 0-.657z" class="prefix__cls-13" data-name="Tracé 441" transform="translate(-28.732 -24.343)"/>
            <path id="prefix__Tracé_442-2" d="M40.415 31.25a1.925 1.925 0 0 0 0-3.85 1.961 1.961 0 0 0-1.915 1.925 1.9 1.9 0 0 0 1.915 1.925zm0-2.958a.986.986 0 0 1 0 1.972 1.022 1.022 0 0 1-.982-.986.934.934 0 0 1 .982-.986z" class="prefix__cls-13" data-name="Tracé 442" transform="translate(-21.383 -15.006)"/>
            <path id="prefix__Tracé_443-2" d="M37.068 7.139h3.507a.469.469 0 0 0 0-.939h-3.507a.469.469 0 0 0 0 .939z" class="prefix__cls-13" data-name="Tracé 443" transform="translate(-20.373 -3.759)"/>
            <path id="prefix__Tracé_444-2" d="M19.218 39.97a2.759 2.759 0 1 0-5.518 0 2.8 2.8 0 0 0 2.759 2.77 2.77 2.77 0 0 0 2.759-2.77zm-4.583 0a1.824 1.824 0 1 1 1.824 1.83 1.861 1.861 0 0 1-1.824-1.83z" class="prefix__cls-13" data-name="Tracé 444" transform="translate(-8.182 -20.205)"/>
        </g>
        <g id="prefix__picto-visite-de-sécurité" transform="translate(766 728)">
            <path id="prefix__Tracé_455-2" d="M44.585 20.5H16.568a4.068 4.068 0 0 0-4.068 4.068v21.864a4.068 4.068 0 0 0 4.068 4.068h28.017a4.068 4.068 0 0 0 4.068-4.068V24.568a4.068 4.068 0 0 0-4.068-4.068zm-.863 28.983h-10.8V47.7a5.4 5.4 0 1 1 10.8 0zm-5.4-8.2a3.625 3.625 0 1 1 3.625-3.625v.005a3.626 3.626 0 0 1-3.625 3.623zm9.314 5.146a3.051 3.051 0 0 1-3.051 3.051h.154V47.7a6.417 6.417 0 0 0-4.154-5.995 4.642 4.642 0 1 0-4.531 0 6.422 6.422 0 0 0-4.149 5.995v1.78H16.568a3.051 3.051 0 0 1-3.051-3.051V24.568a3.152 3.152 0 0 1 2.1-2.9 2.6 2.6 0 0 1 .954-.152h28.014a3.051 3.051 0 0 1 3.051 3.051zm-10.585-18.49a.509.509 0 0 1-.508.508H25.676a.508.508 0 0 1 0-1.017h10.866a.509.509 0 0 1 .509.509zM26.627 36.2a.509.509 0 0 1-.508.508h-9.788a.508.508 0 0 1 0-1.017h9.788a.509.509 0 0 1 .508.509zm0 4.7a.509.509 0 0 1-.508.508h-9.788a.508.508 0 1 1 0-1.017h9.788a.509.509 0 0 1 .508.514z" class="prefix__cls-4" data-name="Tracé 455" transform="translate(-12.5 -20.5)"/>
        </g>
        <g id="prefix__picto-visite-de-sécurité-select" transform="translate(1180 728)">
            <path id="prefix__Tracé_455-3" d="M44.585 20.5H16.568a4.068 4.068 0 0 0-4.068 4.068v21.864a4.068 4.068 0 0 0 4.068 4.068h28.017a4.068 4.068 0 0 0 4.068-4.068V24.568a4.068 4.068 0 0 0-4.068-4.068zm-.863 28.983h-10.8V47.7a5.4 5.4 0 1 1 10.8 0zm-5.4-8.2a3.625 3.625 0 1 1 3.625-3.625v.005a3.626 3.626 0 0 1-3.625 3.623zm9.314 5.146a3.051 3.051 0 0 1-3.051 3.051h.154V47.7a6.417 6.417 0 0 0-4.154-5.995 4.642 4.642 0 1 0-4.531 0 6.422 6.422 0 0 0-4.149 5.995v1.78H16.568a3.051 3.051 0 0 1-3.051-3.051V24.568a3.152 3.152 0 0 1 2.1-2.9 2.6 2.6 0 0 1 .954-.152h28.014a3.051 3.051 0 0 1 3.051 3.051zm-10.585-18.49a.509.509 0 0 1-.508.508H25.676a.508.508 0 0 1 0-1.017h10.866a.509.509 0 0 1 .509.509zM26.627 36.2a.509.509 0 0 1-.508.508h-9.788a.508.508 0 0 1 0-1.017h9.788a.509.509 0 0 1 .508.509zm0 4.7a.509.509 0 0 1-.508.508h-9.788a.508.508 0 1 1 0-1.017h9.788a.509.509 0 0 1 .508.514z" class="prefix__cls-13" data-name="Tracé 455" transform="translate(-12.5 -20.5)"/>
        </g>
        <g id="prefix__picto-administration" transform="translate(676 728)">
            <path id="prefix__Tracé_457" d="M277.344 367.543h2.928a.356.356 0 1 0 0-.713h-2.928a.356.356 0 1 0 0 .713z" class="prefix__cls-4" data-name="Tracé 457" transform="translate(-255.069 -341.955)"/>
            <path id="prefix__Tracé_458" d="M277.344 387.753h2.928a.356.356 0 1 0 0-.713h-2.928a.356.356 0 1 0 0 .713z" class="prefix__cls-4" data-name="Tracé 458" transform="translate(-255.069 -360.364)"/>
            <ellipse id="prefix__Ellipse_27" cx=".364" cy=".356" class="prefix__cls-4" data-name="Ellipse 27" rx=".364" ry=".356" transform="translate(7.218 29.287)"/>
            <path id="prefix__Tracé_459" d="M185.747 100.085a8.115 8.115 0 0 0 2.081 2.438 5.206 5.206 0 0 0 1.361.748 4.577 4.577 0 0 0 1.566.276h.008a4.576 4.576 0 0 0 1.565-.276 5.2 5.2 0 0 0 1.36-.748A9.478 9.478 0 0 0 196.5 98.6a12.138 12.138 0 0 0 .958-4.4 6.442 6.442 0 0 0-.937-3.346 6.665 6.665 0 0 0-2.455-2.357.377.377 0 0 0-.18-.046.366.366 0 0 0-.317.18.354.354 0 0 0 .137.486 5.84 5.84 0 0 1 3.024 5.082 11.961 11.961 0 0 1-1.593 5.527 7.52 7.52 0 0 1-1.892 2.226 3.969 3.969 0 0 1-4.974 0 8.637 8.637 0 0 1-2.581-3.625 11.514 11.514 0 0 1-.9-4.128 5.747 5.747 0 0 1 1.749-4.132 6 6 0 0 1 4.223-1.71.356.356 0 1 0 0-.713 6.794 6.794 0 0 0-2.608.514 6.7 6.7 0 0 0-2.13 1.4 6.509 6.509 0 0 0-1.435 2.084 6.391 6.391 0 0 0-.527 2.553 11.018 11.018 0 0 0 .43 2.859 12.981 12.981 0 0 0 1.255 3.031z" class="prefix__cls-4" data-name="Tracé 459" transform="translate(-170.611 -87.65)"/>
            <path id="prefix__Tracé_460" d="M269.7 90.153a.354.354 0 0 0 .082.01.362.362 0 0 0 .354-.276.347.347 0 0 0-.046-.269.359.359 0 0 0-.227-.159.368.368 0 0 0-.083-.009.362.362 0 0 0-.354.275.357.357 0 0 0 .274.428z" class="prefix__cls-4" data-name="Tracé 460" transform="translate(-248.194 -89.29)"/>
            <path id="prefix__Tracé_461" d="M76.15 226.849l-4.181-1.609-.764-.677a.374.374 0 0 0-.282-.091.364.364 0 0 0-.257.144L68.88 227l-1.788-2.388a.364.364 0 0 0-.258-.144.369.369 0 0 0-.281.092l-.757.676-4.184 1.609a.359.359 0 0 0-.231.331v1.952l-.992-.886a.373.373 0 0 0-.282-.091.364.364 0 0 0-.258.144l-3.437 4.593-3.439-4.588a.365.365 0 0 0-.258-.144.37.37 0 0 0-.282.092l-1.054.944v-2.012a.358.358 0 0 0-.231-.331l-4.184-1.61-.757-.676a.369.369 0 0 0-.539.052L43.877 227l-1.789-2.388a.364.364 0 0 0-.257-.144.373.373 0 0 0-.282.092l-.757.676-4.181 1.609a.359.359 0 0 0-.23.331v5.131a.354.354 0 0 0 .107.252.371.371 0 0 0 .258.1h6.525a.341.341 0 0 0-.007.063v7.738a.364.364 0 0 0 .729 0v-7.5l7.078-2.722 3 5.378a.364.364 0 0 0 .265.179.34.34 0 0 0 .053 0h.048a.375.375 0 0 0 .049-.01l.027-.008a.374.374 0 0 0 .048-.022l.022-.012a.365.365 0 0 0 .062-.047l1.77-1.72 1.587 1.45a.365.365 0 0 0 .06.043l.015.008a.366.366 0 0 0 .055.024h.018a.372.372 0 0 0 .057.011h.041a.459.459 0 0 0 .05 0 .362.362 0 0 0 .261-.168l3.178-5.118.366.141 6.722 2.586v8.593h-3.576v-5.432a.364.364 0 0 0-.729 0v5.415H48.3v-5.415a.364.364 0 0 0-.729 0v5.432h-1.79a.356.356 0 1 0 0 .713H69.2a.369.369 0 0 0 .258-.1.351.351 0 0 0 .107-.252v-9.192a.339.339 0 0 0-.006-.063h6.46a.367.367 0 0 0 .258-.1.349.349 0 0 0 .107-.252v-5.12a.36.36 0 0 0-.234-.331zm-5.135-1.492l.291.257-.475.763-1 1.61-.464-.426zm-4.27 0l1.657 2.212-.562.546-1.392-2.493zm-6.545 3.685l.929.829-2.949 4.749-1.28-1.169zm-7.572 0l3.308 4.417-.344.334-1.11 1.078-2.789-4.993zm-6.611-3.684l.3.265-1.192 2.13-.2.363-.562-.546zm-4.275 0l1.652 2.2-.467.426-1.04-1.678-.429-.692zm-4.632 2.066l3.726-1.434.425.686 1.158 1.866.116.186a.354.354 0 0 0 .111.113.366.366 0 0 0 .131.051h.109a.37.37 0 0 0 .057-.011l.019-.005a.373.373 0 0 0 .052-.022l.019-.009a.376.376 0 0 0 .061-.044l.774-.707.879.853a.355.355 0 0 0 .045.036l.016.011a.369.369 0 0 0 .047.024l.021.008a.382.382 0 0 0 .049.014h.016a.37.37 0 0 0 .054.005h.06a.364.364 0 0 0 .267-.182l.383-.684 1.228-2.194 3.716 1.429v2.2l-6.076 2.335h-7.464zm38.543 4.532h-7.468l-5.986-2.3-.09-.035v-2.2l3.716-1.429 1.326 2.373.282.505a.365.365 0 0 0 .268.182.338.338 0 0 0 .052 0h.048a.36.36 0 0 0 .053-.011l.021-.006a.365.365 0 0 0 .059-.027l.012-.006a.358.358 0 0 0 .064-.049l.1-.093.783-.759.771.707a.384.384 0 0 0 .032.023l.026.019c.009.006.02.01.03.015a.354.354 0 0 0 .038.016l.034.009.037.007h.096a.4.4 0 0 0 .262-.168l1.706-2.744 3.726 1.435z" class="prefix__cls-4" data-name="Tracé 461" transform="translate(-36.38 -212.279)"/>
            <path id="prefix__Tracé_462" d="M353.306 133.544a2.863 2.863 0 0 0 1.729.6h.007a2.862 2.862 0 0 0 1.731-.6 5.358 5.358 0 0 0 1.621-2.257 7 7 0 0 0 .544-2.518 3.757 3.757 0 0 0-1.141-2.7 3.914 3.914 0 0 0-2.758-1.119 3.865 3.865 0 0 0-3.9 3.819 7.2 7.2 0 0 0 .963 3.366 4.711 4.711 0 0 0 1.204 1.409zm-.507-6.97a3.216 3.216 0 0 1 4.483 0 3.059 3.059 0 0 1 .928 2.2 6.493 6.493 0 0 1-.866 3.013 4.019 4.019 0 0 1-1.014 1.2 2.052 2.052 0 0 1-2.58 0 4.658 4.658 0 0 1-1.389-1.958 6.272 6.272 0 0 1-.494-2.252 3.055 3.055 0 0 1 .933-2.204z" class="prefix__cls-4" data-name="Tracé 462" transform="translate(-322.476 -121.627)"/>
            <path id="prefix__Tracé_463" d="M77.336 133.544a2.859 2.859 0 0 0 1.729.6h.007a2.868 2.868 0 0 0 1.731-.6 5.368 5.368 0 0 0 1.623-2.257 6.974 6.974 0 0 0 .547-2.518 3.757 3.757 0 0 0-1.145-2.7 3.95 3.95 0 0 0-5.517 0 3.755 3.755 0 0 0-1.143 2.7 7.192 7.192 0 0 0 .963 3.366 4.712 4.712 0 0 0 1.205 1.409zm-.508-6.97a3.219 3.219 0 0 1 4.487 0 3.052 3.052 0 0 1 .931 2.2 6.486 6.486 0 0 1-.87 3.013 4.025 4.025 0 0 1-1.016 1.2 2.049 2.049 0 0 1-2.58 0 4.659 4.659 0 0 1-1.389-1.958 6.251 6.251 0 0 1-.493-2.252 3.056 3.056 0 0 1 .93-2.204z" class="prefix__cls-4" data-name="Tracé 463" transform="translate(-71.638 -121.627)"/>
            <path id="prefix__Tracé_464" d="M209.371 136.29a.664.664 0 0 0-.321.1l-.017.009a9.254 9.254 0 0 0-1.35 1.122 2.978 2.978 0 0 1-1.914.635h-.017a3.1 3.1 0 0 1-1.394-.313 2.335 2.335 0 0 1-1.031-1.013.365.365 0 0 0-.324-.194.368.368 0 0 0-.166.039.36.36 0 0 0-.181.208.347.347 0 0 0 .023.271 3.056 3.056 0 0 0 1.345 1.321 3.852 3.852 0 0 0 1.729.392 4.333 4.333 0 0 0 1.35-.217 3.029 3.029 0 0 0 1.081-.614c.327-.3.6-.544.805-.717v.085a.714.714 0 0 0 .139.454.66.66 0 0 0 .517.237h.019a1.728 1.728 0 0 0 .576-.122 5.038 5.038 0 0 1 1.49-.33h.017a1.025 1.025 0 0 1 .463.089.37.37 0 0 1 .2.252.365.365 0 0 0 .351.261.4.4 0 0 0 .1-.012.361.361 0 0 0 .219-.168.347.347 0 0 0 .035-.27 1.091 1.091 0 0 0-.556-.691 1.718 1.718 0 0 0-.814-.174 5.38 5.38 0 0 0-1.755.374 1.354 1.354 0 0 1-.269.073 1.838 1.838 0 0 1 .039-.254c0-.025.01-.048.014-.072a1.517 1.517 0 0 0 .039-.294v-.009a.489.489 0 0 0-.067-.253.415.415 0 0 0-.163-.152.446.446 0 0 0-.2-.051z" class="prefix__cls-4" data-name="Tracé 464" transform="translate(-187.498 -131.956)"/>
            <path id="prefix__Tracé_465" d="M271.345 178.125l-.022.008a.358.358 0 0 0-.191.2.342.342 0 0 0 .007.273.365.365 0 0 0 .332.212.372.372 0 0 0 .149-.031l.015-.007a2.86 2.86 0 0 1 .915-.2h.011a.648.648 0 0 1 .461.138.37.37 0 0 0 .515 0 .353.353 0 0 0 0-.5 1.352 1.352 0 0 0-.974-.346 3.4 3.4 0 0 0-1.218.253z" class="prefix__cls-4" data-name="Tracé 465" transform="translate(-249.732 -169.822)"/>
            <path id="prefix__Tracé_466" d="M218.579 178.125a3.394 3.394 0 0 0-1.218-.265 1.354 1.354 0 0 0-.974.345.35.35 0 0 0-.107.252.345.345 0 0 0 .106.252.362.362 0 0 0 .259.106.368.368 0 0 0 .256-.1.648.648 0 0 1 .462-.139 2.438 2.438 0 0 1 .637.106c.1.029.176.056.224.075l.06.023.015.006a.367.367 0 0 0 .481-.181.355.355 0 0 0-.185-.47z" class="prefix__cls-4" data-name="Tracé 466" transform="translate(-199.897 -169.822)"/>
        </g>
        <g id="prefix__picto-administration-select" transform="translate(1090 728)">
            <path id="prefix__Tracé_457-2" d="M277.344 367.543h2.928a.356.356 0 1 0 0-.713h-2.928a.356.356 0 1 0 0 .713z" class="prefix__cls-13" data-name="Tracé 457" transform="translate(-255.069 -341.955)"/>
            <path id="prefix__Tracé_458-2" d="M277.344 387.753h2.928a.356.356 0 1 0 0-.713h-2.928a.356.356 0 1 0 0 .713z" class="prefix__cls-13" data-name="Tracé 458" transform="translate(-255.069 -360.364)"/>
            <ellipse id="prefix__Ellipse_27-2" cx=".364" cy=".356" class="prefix__cls-13" data-name="Ellipse 27" rx=".364" ry=".356" transform="translate(7.218 29.287)"/>
            <path id="prefix__Tracé_459-2" d="M185.747 100.085a8.115 8.115 0 0 0 2.081 2.438 5.206 5.206 0 0 0 1.361.748 4.577 4.577 0 0 0 1.566.276h.008a4.576 4.576 0 0 0 1.565-.276 5.2 5.2 0 0 0 1.36-.748A9.478 9.478 0 0 0 196.5 98.6a12.138 12.138 0 0 0 .958-4.4 6.442 6.442 0 0 0-.937-3.346 6.665 6.665 0 0 0-2.455-2.357.377.377 0 0 0-.18-.046.366.366 0 0 0-.317.18.354.354 0 0 0 .137.486 5.84 5.84 0 0 1 3.024 5.082 11.961 11.961 0 0 1-1.593 5.527 7.52 7.52 0 0 1-1.892 2.226 3.969 3.969 0 0 1-4.974 0 8.637 8.637 0 0 1-2.581-3.625 11.514 11.514 0 0 1-.9-4.128 5.747 5.747 0 0 1 1.749-4.132 6 6 0 0 1 4.223-1.71.356.356 0 1 0 0-.713 6.794 6.794 0 0 0-2.608.514 6.7 6.7 0 0 0-2.13 1.4 6.509 6.509 0 0 0-1.435 2.084 6.391 6.391 0 0 0-.527 2.553 11.018 11.018 0 0 0 .43 2.859 12.981 12.981 0 0 0 1.255 3.031z" class="prefix__cls-13" data-name="Tracé 459" transform="translate(-170.611 -87.65)"/>
            <path id="prefix__Tracé_460-2" d="M269.7 90.153a.354.354 0 0 0 .082.01.362.362 0 0 0 .354-.276.347.347 0 0 0-.046-.269.359.359 0 0 0-.227-.159.368.368 0 0 0-.083-.009.362.362 0 0 0-.354.275.357.357 0 0 0 .274.428z" class="prefix__cls-13" data-name="Tracé 460" transform="translate(-248.194 -89.29)"/>
            <path id="prefix__Tracé_461-2" d="M76.15 226.849l-4.181-1.609-.764-.677a.374.374 0 0 0-.282-.091.364.364 0 0 0-.257.144L68.88 227l-1.788-2.388a.364.364 0 0 0-.258-.144.369.369 0 0 0-.281.092l-.757.676-4.184 1.609a.359.359 0 0 0-.231.331v1.952l-.992-.886a.373.373 0 0 0-.282-.091.364.364 0 0 0-.258.144l-3.437 4.593-3.439-4.588a.365.365 0 0 0-.258-.144.37.37 0 0 0-.282.092l-1.054.944v-2.012a.358.358 0 0 0-.231-.331l-4.184-1.61-.757-.676a.369.369 0 0 0-.539.052L43.877 227l-1.789-2.388a.364.364 0 0 0-.257-.144.373.373 0 0 0-.282.092l-.757.676-4.181 1.609a.359.359 0 0 0-.23.331v5.131a.354.354 0 0 0 .107.252.371.371 0 0 0 .258.1h6.525a.341.341 0 0 0-.007.063v7.738a.364.364 0 0 0 .729 0v-7.5l7.078-2.722 3 5.378a.364.364 0 0 0 .265.179.34.34 0 0 0 .053 0h.048a.375.375 0 0 0 .049-.01l.027-.008a.374.374 0 0 0 .048-.022l.022-.012a.365.365 0 0 0 .062-.047l1.77-1.72 1.587 1.45a.365.365 0 0 0 .06.043l.015.008a.366.366 0 0 0 .055.024h.018a.372.372 0 0 0 .057.011h.041a.459.459 0 0 0 .05 0 .362.362 0 0 0 .261-.168l3.178-5.118.366.141 6.722 2.586v8.593h-3.576v-5.432a.364.364 0 0 0-.729 0v5.415H48.3v-5.415a.364.364 0 0 0-.729 0v5.432h-1.79a.356.356 0 1 0 0 .713H69.2a.369.369 0 0 0 .258-.1.351.351 0 0 0 .107-.252v-9.192a.339.339 0 0 0-.006-.063h6.46a.367.367 0 0 0 .258-.1.349.349 0 0 0 .107-.252v-5.12a.36.36 0 0 0-.234-.331zm-5.135-1.492l.291.257-.475.763-1 1.61-.464-.426zm-4.27 0l1.657 2.212-.562.546-1.392-2.493zm-6.545 3.685l.929.829-2.949 4.749-1.28-1.169zm-7.572 0l3.308 4.417-.344.334-1.11 1.078-2.789-4.993zm-6.611-3.684l.3.265-1.192 2.13-.2.363-.562-.546zm-4.275 0l1.652 2.2-.467.426-1.04-1.678-.429-.692zm-4.632 2.066l3.726-1.434.425.686 1.158 1.866.116.186a.354.354 0 0 0 .111.113.366.366 0 0 0 .131.051h.109a.37.37 0 0 0 .057-.011l.019-.005a.373.373 0 0 0 .052-.022l.019-.009a.376.376 0 0 0 .061-.044l.774-.707.879.853a.355.355 0 0 0 .045.036l.016.011a.369.369 0 0 0 .047.024l.021.008a.382.382 0 0 0 .049.014h.016a.37.37 0 0 0 .054.005h.06a.364.364 0 0 0 .267-.182l.383-.684 1.228-2.194 3.716 1.429v2.2l-6.076 2.335h-7.464zm38.543 4.532h-7.468l-5.986-2.3-.09-.035v-2.2l3.716-1.429 1.326 2.373.282.505a.365.365 0 0 0 .268.182.338.338 0 0 0 .052 0h.048a.36.36 0 0 0 .053-.011l.021-.006a.365.365 0 0 0 .059-.027l.012-.006a.358.358 0 0 0 .064-.049l.1-.093.783-.759.771.707a.384.384 0 0 0 .032.023l.026.019c.009.006.02.01.03.015a.354.354 0 0 0 .038.016l.034.009.037.007h.096a.4.4 0 0 0 .262-.168l1.706-2.744 3.726 1.435z" class="prefix__cls-13" data-name="Tracé 461" transform="translate(-36.38 -212.279)"/>
            <path id="prefix__Tracé_462-2" d="M353.306 133.544a2.863 2.863 0 0 0 1.729.6h.007a2.862 2.862 0 0 0 1.731-.6 5.358 5.358 0 0 0 1.621-2.257 7 7 0 0 0 .544-2.518 3.757 3.757 0 0 0-1.141-2.7 3.914 3.914 0 0 0-2.758-1.119 3.865 3.865 0 0 0-3.9 3.819 7.2 7.2 0 0 0 .963 3.366 4.711 4.711 0 0 0 1.204 1.409zm-.507-6.97a3.216 3.216 0 0 1 4.483 0 3.059 3.059 0 0 1 .928 2.2 6.493 6.493 0 0 1-.866 3.013 4.019 4.019 0 0 1-1.014 1.2 2.052 2.052 0 0 1-2.58 0 4.658 4.658 0 0 1-1.389-1.958 6.272 6.272 0 0 1-.494-2.252 3.055 3.055 0 0 1 .933-2.204z" class="prefix__cls-13" data-name="Tracé 462" transform="translate(-322.476 -121.627)"/>
            <path id="prefix__Tracé_463-2" d="M77.336 133.544a2.859 2.859 0 0 0 1.729.6h.007a2.868 2.868 0 0 0 1.731-.6 5.368 5.368 0 0 0 1.623-2.257 6.974 6.974 0 0 0 .547-2.518 3.757 3.757 0 0 0-1.145-2.7 3.95 3.95 0 0 0-5.517 0 3.755 3.755 0 0 0-1.143 2.7 7.192 7.192 0 0 0 .963 3.366 4.712 4.712 0 0 0 1.205 1.409zm-.508-6.97a3.219 3.219 0 0 1 4.487 0 3.052 3.052 0 0 1 .931 2.2 6.486 6.486 0 0 1-.87 3.013 4.025 4.025 0 0 1-1.016 1.2 2.049 2.049 0 0 1-2.58 0 4.659 4.659 0 0 1-1.389-1.958 6.251 6.251 0 0 1-.493-2.252 3.056 3.056 0 0 1 .93-2.204z" class="prefix__cls-13" data-name="Tracé 463" transform="translate(-71.638 -121.627)"/>
            <path id="prefix__Tracé_464-2" d="M209.371 136.29a.664.664 0 0 0-.321.1l-.017.009a9.254 9.254 0 0 0-1.35 1.122 2.978 2.978 0 0 1-1.914.635h-.017a3.1 3.1 0 0 1-1.394-.313 2.335 2.335 0 0 1-1.031-1.013.365.365 0 0 0-.324-.194.368.368 0 0 0-.166.039.36.36 0 0 0-.181.208.347.347 0 0 0 .023.271 3.056 3.056 0 0 0 1.345 1.321 3.852 3.852 0 0 0 1.729.392 4.333 4.333 0 0 0 1.35-.217 3.029 3.029 0 0 0 1.081-.614c.327-.3.6-.544.805-.717v.085a.714.714 0 0 0 .139.454.66.66 0 0 0 .517.237h.019a1.728 1.728 0 0 0 .576-.122 5.038 5.038 0 0 1 1.49-.33h.017a1.025 1.025 0 0 1 .463.089.37.37 0 0 1 .2.252.365.365 0 0 0 .351.261.4.4 0 0 0 .1-.012.361.361 0 0 0 .219-.168.347.347 0 0 0 .035-.27 1.091 1.091 0 0 0-.556-.691 1.718 1.718 0 0 0-.814-.174 5.38 5.38 0 0 0-1.755.374 1.354 1.354 0 0 1-.269.073 1.838 1.838 0 0 1 .039-.254c0-.025.01-.048.014-.072a1.517 1.517 0 0 0 .039-.294v-.009a.489.489 0 0 0-.067-.253.415.415 0 0 0-.163-.152.446.446 0 0 0-.2-.051z" class="prefix__cls-13" data-name="Tracé 464" transform="translate(-187.498 -131.956)"/>
            <path id="prefix__Tracé_465-2" d="M271.345 178.125l-.022.008a.358.358 0 0 0-.191.2.342.342 0 0 0 .007.273.365.365 0 0 0 .332.212.372.372 0 0 0 .149-.031l.015-.007a2.86 2.86 0 0 1 .915-.2h.011a.648.648 0 0 1 .461.138.37.37 0 0 0 .515 0 .353.353 0 0 0 0-.5 1.352 1.352 0 0 0-.974-.346 3.4 3.4 0 0 0-1.218.253z" class="prefix__cls-13" data-name="Tracé 465" transform="translate(-249.732 -169.822)"/>
            <path id="prefix__Tracé_466-2" d="M218.579 178.125a3.394 3.394 0 0 0-1.218-.265 1.354 1.354 0 0 0-.974.345.35.35 0 0 0-.107.252.345.345 0 0 0 .106.252.362.362 0 0 0 .259.106.368.368 0 0 0 .256-.1.648.648 0 0 1 .462-.139 2.438 2.438 0 0 1 .637.106c.1.029.176.056.224.075l.06.023.015.006a.367.367 0 0 0 .481-.181.355.355 0 0 0-.185-.47z" class="prefix__cls-13" data-name="Tracé 466" transform="translate(-199.897 -169.822)"/>
        </g>
        <g id="prefix__arrow-3" transform="translate(115 865)">
            <path id="prefix__Tracé_473" d="M0 3.519L2.924 0l2.925 3.519" data-name="Tracé 473" transform="rotate(90 1.76 1.76)" style="stroke:#e49819;stroke-width:2px;stroke-linecap:round;fill:none"/>
        </g>
        <g id="prefix__more-open" transform="translate(1267 855)">
            <circle id="prefix__Ellipse_140" cx="3" cy="3" r="3" class="prefix__cls-7" data-name="Ellipse 140"/>
            <circle id="prefix__Ellipse_141" cx="3" cy="3" r="3" class="prefix__cls-7" data-name="Ellipse 141" transform="translate(0 9.2)"/>
            <circle id="prefix__Ellipse_142" cx="3" cy="3" r="3" class="prefix__cls-7" data-name="Ellipse 142" transform="translate(0 18.4)"/>
        </g>
        <g id="prefix__picto-delet" transform="translate(1558.999 858)">
            <g id="prefix__delet">
                <path id="prefix__Tracé_477" d="M-316.566 223.974h-4.272a.742.742 0 0 0 .05-.25.75.75 0 0 0-.75-.75h-6.607a.75.75 0 0 0-.75.75.742.742 0 0 0 .051.25h-4.272a.75.75 0 0 0-.75.75.75.75 0 0 0 .75.75h1.065v13.463a2.164 2.164 0 0 0 2.161 2.162h10.1a2.165 2.165 0 0 0 2.162-2.162v-13.463h1.064a.75.75 0 0 0 .75-.75.75.75 0 0 0-.752-.75zm-2.564 14.963a.663.663 0 0 1-.662.662h-10.1a.663.663 0 0 1-.661-.662v-13.463h11.421z" class="prefix__cls-9" data-name="Tracé 477" transform="translate(333.866 -222.974)"/>
                <path id="prefix__Tracé_478" d="M-326.193 237.493a.75.75 0 0 0 .75-.75v-8.864a.75.75 0 0 0-.75-.75.75.75 0 0 0-.75.75v8.864a.75.75 0 0 0 .75.75z" class="prefix__cls-9" data-name="Tracé 478" transform="translate(333.866 -222.974)"/>
                <path id="prefix__Tracé_479" d="M-323.5 237.493a.75.75 0 0 0 .75-.75v-8.864a.75.75 0 0 0-.75-.75.75.75 0 0 0-.75.75v8.864a.75.75 0 0 0 .75.75z" class="prefix__cls-9" data-name="Tracé 479" transform="translate(333.866 -222.974)"/>
            </g>
        </g>
        <g id="prefix__picto-download" transform="translate(1612 858)">
            <path id="prefix__Tracé_480" d="M-274.672 232.953a.724.724 0 0 0 .724-.725v-8.878a.725.725 0 0 0-.724-.725.725.725 0 0 0-.725.725v8.878a.724.724 0 0 0 .725.725z" class="prefix__cls-9" data-name="Tracé 480" transform="translate(283.95 -222.625)"/>
            <path id="prefix__Tracé_481" d="M-276.25 235.937a2.168 2.168 0 0 0 1.538.636 2.163 2.163 0 0 0 1.536-.635l4.012-4a.724.724 0 0 0 0-1.025.724.724 0 0 0-1.025 0l-4.013 4a.721.721 0 0 1-.513.213.72.72 0 0 1-.511-.211l-3.937-4a.725.725 0 0 0-1.025-.007.725.725 0 0 0-.008 1.025z" class="prefix__cls-9" data-name="Tracé 481" transform="translate(283.95 -222.625)"/>
            <path id="prefix__Tracé_482" d="M-266.12 237.556a.725.725 0 0 0-.725.724 1.451 1.451 0 0 1-1.449 1.45h-12.756a1.451 1.451 0 0 1-1.45-1.45.725.725 0 0 0-.725-.724.725.725 0 0 0-.725.724 2.9 2.9 0 0 0 2.9 2.9h12.756a2.9 2.9 0 0 0 2.9-2.9.725.725 0 0 0-.726-.724z" class="prefix__cls-9" data-name="Tracé 482" transform="translate(283.95 -222.625)"/>
        </g>
        <g id="prefix__picto-view" transform="translate(1504 859)">
            <path id="prefix__Tracé_475" d="M-373.029 227.262a4.779 4.779 0 0 0-4.774 4.774 4.779 4.779 0 0 0 4.774 4.775 4.78 4.78 0 0 0 4.775-4.775 4.78 4.78 0 0 0-4.775-4.774zm0 8.049a3.278 3.278 0 0 1-3.274-3.275 3.278 3.278 0 0 1 3.274-3.274 3.278 3.278 0 0 1 3.275 3.274 3.279 3.279 0 0 1-3.275 3.275z" class="prefix__cls-9" data-name="Tracé 475" transform="translate(384.525 -223.955)"/>
            <path id="prefix__Tracé_476" d="M-373.029 223.955c-6.339 0-11.5 3.625-11.5 8.081s5.157 8.082 11.5 8.082 11.5-3.626 11.5-8.082-5.16-8.081-11.5-8.081zm0 14.663c-5.512 0-10-2.953-10-6.582s4.484-6.581 10-6.581 10 2.953 10 6.581-4.488 6.582-10 6.582z" class="prefix__cls-9" data-name="Tracé 476" transform="translate(384.525 -223.955)"/>
        </g>
        <g id="prefix__picto-edit" transform="translate(1452.658 858)">
            <path id="prefix__Rectangle_642" d="M0 0H16.502V1.266H0z" class="prefix__cls-9" data-name="Rectangle 642" transform="translate(0 18.282)"/>
            <path id="prefix__Tracé_483" d="M-412.315 222.381a2.394 2.394 0 0 0-1.7-.705 2.39 2.39 0 0 0-1.7.705l-9.7 9.7a.635.635 0 0 0-.161.274l-1.437 5.028a.637.637 0 0 0 .161.622.633.633 0 0 0 .448.185.59.59 0 0 0 .174-.024l5.028-1.437a.62.62 0 0 0 .274-.16l9.7-9.7a2.394 2.394 0 0 0 .707-1.7 2.392 2.392 0 0 0-.707-1.705zm-9.4 13.171l-3.775 1.078 1.078-3.775 7.7-7.7 2.7 2.7zm9.58-9.58l-.989.989-2.7-2.7.988-.988a1.146 1.146 0 0 1 1.62 0l1.077 1.077a1.136 1.136 0 0 1 .335.809 1.135 1.135 0 0 1-.329.813z" class="prefix__cls-9" data-name="Tracé 483" transform="translate(428.05 -221.676)"/>
        </g>
        <g id="prefix__terminé" transform="translate(1322.999 860)">
            <circle id="prefix__bkg-2-2" cx="7.5" cy="7.5" r="7.5" data-name="bkg-2" style="fill:#55cec7"/>
            <rect id="prefix__Rectangle_644" width="5" height="5" class="prefix__cls-21" data-name="Rectangle 644" rx="1" transform="translate(5 5)"/>
        </g>
        <g id="prefix__En_cours_" data-name="En cours" transform="translate(1388 860)">
            <circle id="prefix__bkg-4" cx="7.5" cy="7.5" r="7.5" class="prefix__cls-12" data-name="bkg"/>
            <path id="prefix__Polygone_1" d="M-623.416 421.9a1 1 0 0 1 .277 1.387.988.988 0 0 1-.277.277l-3.2 2.131a1 1 0 0 1-1.386-.282 1 1 0 0 1-.166-.55V420.6a1 1 0 0 1 1-1 1 1 0 0 1 .555.168z" class="prefix__cls-21" data-name="Polygone 1" transform="translate(633.696 -415.23)"/>
        </g>
        <g id="prefix__close-picto" transform="translate(1662.439 860)">
            <path id="prefix__Ligne_509" d="M0 0L15 15" class="prefix__cls-26" data-name="Ligne 509"/>
            <path id="prefix__Ligne_510" d="M0 15L15 0" class="prefix__cls-26" data-name="Ligne 510"/>
        </g>
        <g id="prefix__elemenyts-design" transform="translate(1940)">
            <g id="prefix__bkg-header-6" data-name="bkg-header" transform="translate(-94)">
                <path id="prefix__bkg-header-7" d="M0 0H855V1080H0z" data-name="bkg-header"/>
                <path id="prefix__Tracé_485-2" d="M382.077 280.231s-4.415-74.412-141.206 0c0 0-146.3 90.952-364.393 90.952 0 0-6.278 68.207 9.165 78.543 0 0 200.781 64.08 496.434-124.019z" class="prefix__cls-17" data-name="Tracé 485" transform="translate(578.583 -187.546)"/>
                <path id="prefix__Tracé_486-2" d="M-124.415 433.512s159.2 2.068 291.582-70.28 132.381-70.28 169.89-70.28c0 0-136.8-115.751-304.478-41.34s-156.994 181.9-156.994 181.9z" class="prefix__cls-17" data-name="Tracé 486" transform="translate(579.477 -260.211)"/>
                <circle id="prefix__Ellipse_166" cx="494" cy="494" r="494" data-name="Ellipse 166" transform="rotate(45 527.764 496.985)"/>
            </g>
            <g id="prefix__logo" transform="translate(45 144)">
                <g id="prefix__Ellipse_164" data-name="Ellipse 164" transform="translate(622 302)" style="fill:#073ba0;stroke-width:10px;stroke:#fff">
                    <circle cx="92.5" cy="92.5" r="92.5" class="prefix__cls-43"/>
                    <circle cx="92.5" cy="92.5" r="87.5" class="prefix__cls-44"/>
                </g>
                <g id="prefix__logo-2" data-name="logo" transform="translate(666 371.415)">
                    <g id="prefix__Groupe_60" data-name="Groupe 60">
                        <path id="prefix__Rectangle_650" d="M0 0H6.801V7.011H0z" class="prefix__cls-21" data-name="Rectangle 650" transform="translate(82.442 4.696)"/>
                        <path id="prefix__Rectangle_651" d="M0 0H6.801V20.203H0z" class="prefix__cls-21" data-name="Rectangle 651" transform="translate(82.442 12.921)"/>
                        <path id="prefix__Tracé_588" d="M1282.654 123.846h-10.866v6.669l4.066-.293v13.828h6.8v-13.825l4.066.293v-6.669h-4.066z" class="prefix__cls-21" data-name="Tracé 588" transform="translate(-1206.25 -110.925)"/>
                        <path id="prefix__Tracé_589" d="M1244.475 133.227l-2.9-9.38h-7.368l6.236 20.2h7.367l7.517-20.2h-7.368z" class="prefix__cls-21" data-name="Tracé 589" transform="translate(-1189.975 -110.925)"/>
                        <path id="prefix__Tracé_590" d="M1320.427 109.9a2.8 2.8 0 1 0 2.714 2.8 2.76 2.76 0 0 0-2.714-2.8zm0 5.157a2.361 2.361 0 1 1 2.289-2.359 2.328 2.328 0 0 1-2.289 2.364z" class="prefix__cls-21" data-name="Tracé 590" transform="translate(-1226.141 -105.132)"/>
                        <path id="prefix__Tracé_591" d="M1323.024 113.041a.617.617 0 0 0-.238-.521 1.087 1.087 0 0 0-.669-.181h-1.168c-.022 0-.034.02-.034.058v2.653a.052.052 0 0 0 .057.059h.351c.038 0 .057-.023.057-.071v-1.168c0-.031.015-.047.045-.047h.521c.045 0 .07.006.074.018a.1.1 0 0 1 0 .029l.432 1.192c.015.032.034.047.057.047h.4a.049.049 0 0 0 .039-.023.064.064 0 0 0 .006-.059l-.476-1.227c-.008-.023 0-.035.011-.035a.714.714 0 0 0 .535-.724zm-.976.4h-.623c-.03 0-.045-.015-.045-.046v-.619a.092.092 0 0 1 .005-.035.023.023 0 0 1 .023-.012h.607c.348 0 .522.122.522.363s-.164.346-.489.346z" class="prefix__cls-21" data-name="Tracé 591" transform="translate(-1227.527 -106.143)"/>
                        <path id="prefix__Tracé_592" d="M1205.692 133.649v.129c0 5.579 5.158 12.939 15.23 9.517v-7.909a4.317 4.317 0 0 1-3.825 2.177 3.92 3.92 0 1 1 0-7.809 4.317 4.317 0 0 1 3.825 2.178v-7.8c-10.072-3.422-15.23 3.938-15.23 9.517z" class="prefix__cls-21" data-name="Tracé 592" transform="translate(-1177.623 -110.681)"/>
                        <path id="prefix__Tracé_593" d="M1165.8 120.346a62.956 62.956 0 0 0 16.208-5.5c2.82-1.415 5.524-3.04 8.2-4.721a10.7 10.7 0 0 1 4.176-1.742c-.151-.155-.307-.305-.463-.455q-.511-.491-1.051-.949l-.1-.082c-.107-.09-.216-.176-.325-.264-.145-.116-.29-.233-.438-.347l-.155-.118c-.061-.046-.124-.091-.186-.136-.193-.142-.386-.282-.583-.418l-.177-.12-.045-.03c-.245-.164-.492-.326-.744-.48l-.058-.034-.029-.017q-.651-.4-1.33-.748l-.053-.028q-.688-.354-1.4-.661h-.005c-.286-.122-.575-.236-.866-.345l-.216-.082-.06-.022q-.217-.079-.437-.153l-.056-.015a21.829 21.829 0 0 0-4.083-.946l-.262-.034c-.2-.025-.4-.044-.6-.063q-.244-.022-.49-.039c-.159-.011-.318-.022-.478-.03-.3-.014-.611-.023-.92-.024h-.23q-.55 0-1.093.033c-.194.011-.386.029-.579.046s-.414.034-.62.057c-.232.026-.463.057-.693.091-.155.022-.31.046-.464.071q-.392.065-.779.143l-.308.067c-.3.066-.6.134-.895.213l-.021.006a22.329 22.329 0 0 0-12.157 8.329 23.167 23.167 0 0 0-1.5 2.29l-.1.188q-.29.519-.555 1.055l-.094.189a23.331 23.331 0 0 0-1.063 2.586l-.057.174q-.2.586-.361 1.188l-.057.206a23.438 23.438 0 0 0-.572 2.844v.026c.728-.073 1.459-.095 2.186-.147a57.973 57.973 0 0 0 7.038-1.052z" class="prefix__cls-21" data-name="Tracé 593" transform="translate(-1156.346 -101.737)"/>
                        <path id="prefix__Tracé_594" d="M1157.486 135.614a58.825 58.825 0 0 0 9.105.636h.533a39.324 39.324 0 0 0 15.311-3.118 2.819 2.819 0 0 1 .8-.217 11.083 11.083 0 0 1-.22-2.139v-.129a12.2 12.2 0 0 1 2.887-7.69 10.943 10.943 0 0 1 8.593-3.869 15.3 15.3 0 0 1 3.563.455 23.1 23.1 0 0 0-2.235-3.4l-1.185-.112-.188.026a9.213 9.213 0 0 0-3.528 1.5c-2.4 1.509-5.271 3.26-8.339 4.8a64.93 64.93 0 0 1-16.634 5.649 60.1 60.1 0 0 1-7.244 1.075c-.28.02-.56.036-.841.051-.452.025-.879.049-1.3.091l-.338.034c-.029.48-.048.963-.048 1.45a23.751 23.751 0 0 0 .5 4.835l.577.043c.068.007.145.015.231.029z" class="prefix__cls-21" data-name="Tracé 594" transform="translate(-1156.176 -107.676)"/>
                        <path id="prefix__Tracé_595" d="M1184.516 148.107a.381.381 0 0 0-.33-.217 1 1 0 0 0-.372.1 40.767 40.767 0 0 1-15.952 3.252h-.543a60.541 60.541 0 0 1-9.359-.656c-.037-.006-.072-.01-.1-.012l.131.424a22.425 22.425 0 0 0 21.261 15.963 22.116 22.116 0 0 0 18.354-9.916s.7-1.052 1.165-1.926a15.258 15.258 0 0 1-3.548.452 11.064 11.064 0 0 1-10.707-7.464z" class="prefix__cls-21" data-name="Tracé 595" transform="translate(-1156.904 -120.918)"/>
                    </g>
                </g>
            </g>
            <text id="prefix__Bienvenue" transform="translate(381 517)" style="font-family:OpenSans-Bold,Open Sans;font-weight:700;font-size:41px;letter-spacing:.07em;fill:#fff">
                <tspan x="-119.926" y="0">Bienvenue</tspan>
            </text>
            <text id="prefix__Sur_votre_outil_de_suivis_de_chantiers_d_analyses_de_risques" data-name="Sur votre outil de suivis de chantiers &amp; d’analyses de risques" transform="translate(381 568)" style="font-family:OpenSans,Open Sans;font-size:21px;fill:#fff">
                <tspan x="-71.757" y="0">Sur votre outil </tspan><tspan x="-221.551" y="31">de suivis de chantiers &amp; d’analyses de risques</tspan>
            </text>
            <g id="prefix__elements-design" transform="translate(25.703 409.657)">
                <g id="prefix__elements-design-right" transform="translate(494.779 50.342)">
                    <path id="prefix__Tracé_507" d="M316.452 108.459s24.215-17.569 31.363-35.3-9.426-31.061-20.487-16.8c-5.215 6.724-1.114 34.665-10.876 52.1z" class="prefix__cls-33" data-name="Tracé 507" transform="translate(-290.382 -50.342)"/>
                    <path id="prefix__Tracé_508" d="M311.328 98.206s3.033-20.732-2.364-32.989-20.182-10.463-18.44 2.058c.822 5.903 16.836 17.511 20.804 30.931z" class="prefix__cls-14" data-name="Tracé 508" transform="translate(-290.382 -50.342)"/>
                    <path id="prefix__Tracé_509" d="M330.435 108.629s20.947.506 32.462-6.331 7.949-21.3-4.271-18.057c-5.76 1.529-15.349 18.828-28.191 24.388z" class="prefix__cls-34" data-name="Tracé 509" transform="translate(-290.382 -50.342)"/>
                </g>
                <g id="prefix__elements-design-left" transform="translate(130.099 50.342)">
                    <path id="prefix__Tracé_510" d="M183.547 108.459s-24.214-17.569-31.362-35.3 9.426-31.061 20.487-16.8c5.215 6.724 1.114 34.665 10.875 52.1z" class="prefix__cls-14" data-name="Tracé 510" transform="translate(-130.099 -50.342)"/>
                    <path id="prefix__Tracé_511" d="M188.672 98.206s-3.033-20.732 2.364-32.989 20.182-10.463 18.44 2.058c-.822 5.903-16.836 17.511-20.804 30.931z" class="prefix__cls-34" data-name="Tracé 511" transform="translate(-130.099 -50.342)"/>
                    <path id="prefix__Tracé_512" d="M169.565 108.629s-20.947.506-32.462-6.331-7.949-21.3 4.271-18.057c5.76 1.529 15.349 18.828 28.191 24.388z" class="prefix__cls-33" data-name="Tracé 512" transform="translate(-130.099 -50.342)"/>
                </g>
            </g>
        </g>
        <g id="prefix__element-design-2" data-name="element-design" transform="translate(588 818)">
            <g transform="translate(-588 -818)">
                <g id="prefix__bkg-5" data-name="bkg" transform="translate(588 818)" style="fill:#55cec7;stroke:#f7f9fc;stroke-width:6px">
                    <circle cx="50" cy="50" r="50" class="prefix__cls-43"/>
                    <circle cx="50" cy="50" r="47" class="prefix__cls-44"/>
                </g>
            </g>
            <rect id="prefix__Rectangle_649" width="30" height="30" class="prefix__cls-21" data-name="Rectangle 649" rx="3" transform="translate(35 35)"/>
        </g>
        <g id="prefix__picto-close-see" transform="translate(1343 740) translate(-52.042 -33.668)">
            <g id="prefix__Groupe_72" data-name="Groupe 72">
                <path id="prefix__Tracé_578" d="M65.542 40.682c4.757 0 9.225-1.956 13.268-5.823a.733.733 0 0 0 .061-1c-.629-.607-1.67.429-1.67.429a17.21 17.21 0 0 1-11.66 4.9 17.211 17.211 0 0 1-11.661-4.9s-1.041-1.036-1.67-.429a.733.733 0 0 0 .061 1c4.043 3.867 8.511 5.823 13.268 5.823z" class="prefix__cls-2" data-name="Tracé 578"/>
            </g>
            <g id="prefix__Groupe_73" data-name="Groupe 73">
                <path id="prefix__Tracé_580" d="M77.659 43.174a.6.6 0 0 0 .37-.127.561.561 0 0 0 .088-.8l-1.906-2.3a.6.6 0 0 0-.819-.095l-.01.008a.561.561 0 0 0-.088.8l1.9 2.3a.59.59 0 0 0 .465.214z" class="prefix__cls-2" data-name="Tracé 580"/>
                <path id="prefix__Tracé_581" d="M65.772 47.231a.58.58 0 0 0 .587-.572v-2.953a.579.579 0 0 0-.587-.571.58.58 0 0 0-.588.571v2.949a.579.579 0 0 0 .583.575z" class="prefix__cls-2" data-name="Tracé 581"/>
                <path id="prefix__Tracé_582" d="M53.9 43.124a.593.593 0 0 0 .458-.213l1.9-2.3a.561.561 0 0 0-.089-.8.6.6 0 0 0-.822.078l-.007.009-1.9 2.3a.561.561 0 0 0 .089.8.591.591 0 0 0 .371.126z" class="prefix__cls-2" data-name="Tracé 582"/>
                <path id="prefix__Tracé_583" d="M59.047 46.011a.588.588 0 0 0 .55-.369l1.078-2.761a.568.568 0 0 0-.341-.738.6.6 0 0 0-.758.331L58.5 45.236a.563.563 0 0 0 .339.737.6.6 0 0 0 .208.038z" class="prefix__cls-2" data-name="Tracé 583"/>
                <path id="prefix__Tracé_584" d="M72.466 46.052a.606.606 0 0 0 .207-.037.566.566 0 0 0 .341-.737l-1.073-2.762a.6.6 0 0 0-.756-.334.566.566 0 0 0-.342.737l1.074 2.762a.586.586 0 0 0 .549.371z" class="prefix__cls-2" data-name="Tracé 584"/>
            </g>
        </g>
        <g id="prefix__picto-open-see" transform="translate(1266 733) translate(-52.05 -11.68)">
            <g id="prefix__Groupe_72-2" data-name="Groupe 72">
                <path id="prefix__Tracé_579" d="M61.869 24.346a3.787 3.787 0 1 0 3.788-3.82 3.786 3.786 0 0 0-3.788 3.82zm2.791 1.412a.565.565 0 0 1-1.129 0V25.7a.569.569 0 0 1 .565-.568.556.556 0 0 1 .4.168.564.564 0 0 1 .168.4zm1.708-2.508a.8.8 0 0 1 .571.239.819.819 0 0 1 .235.577v.083a.81.81 0 0 1-.806.814.811.811 0 0 1-.809-.814v-.084a.814.814 0 0 1 .809-.814z" class="prefix__cls-2" data-name="Tracé 579" transform="rotate(74.99 65.654 24.324)"/>
                <path id="prefix__Tracé_585" d="M79.031 24.313a.7.7 0 0 0-.021-.17c-.01-.019-.01-.043-.01-.057a.737.737 0 0 0-.186-.319c-4.047-3.867-8.514-5.823-13.272-5.823-4.756 0-9.225 1.956-13.268 5.823a.725.725 0 0 0-.185.319c-.007.019-.01.038-.015.057a.7.7 0 0 0 0 .34c.005.019.008.038.015.057a.725.725 0 0 0 .185.319c4.043 3.867 8.512 5.823 13.268 5.823 4.757 0 9.225-1.956 13.268-5.823a.737.737 0 0 0 .19-.319c.006-.019.009-.038.014-.057a.7.7 0 0 0 .017-.17zm-13.49 4.875a17.2 17.2 0 0 1-11.631-4.875 17.2 17.2 0 0 1 11.631-4.875 17.2 17.2 0 0 1 11.63 4.875 17.2 17.2 0 0 1-11.63 4.875z" class="prefix__cls-2" data-name="Tracé 585"/>
            </g>
            <g id="prefix__Groupe_73-2" data-name="Groupe 73">
                <path id="prefix__Tracé_580-2" d="M77.3 15.737a.56.56 0 0 1 .356.127.575.575 0 0 1 .085.8l-1.838 2.3a.564.564 0 0 1-.791.094l-.009-.007a.574.574 0 0 1-.085-.8l1.838-2.3a.561.561 0 0 1 .444-.214z" class="prefix__cls-2" data-name="Tracé 580"/>
                <path id="prefix__Tracé_581-2" d="M65.828 11.68a.57.57 0 0 1 .567.572V15.2a.569.569 0 0 1-.567.571.568.568 0 0 1-.567-.571v-2.945a.567.567 0 0 1 .563-.575z" class="prefix__cls-2" data-name="Tracé 581"/>
                <path id="prefix__Tracé_582-2" d="M54.378 15.787a.561.561 0 0 1 .442.213l1.837 2.3a.574.574 0 0 1-.086.8.564.564 0 0 1-.793-.078l-.007-.009-1.837-2.3a.573.573 0 0 1 .086-.8.555.555 0 0 1 .358-.126z" class="prefix__cls-2" data-name="Tracé 582"/>
                <path id="prefix__Tracé_583-2" d="M59.341 12.9a.566.566 0 0 1 .53.369l1.04 2.761a.575.575 0 0 1-.329.738.568.568 0 0 1-.731-.331l-1.04-2.761a.569.569 0 0 1 .53-.775z" class="prefix__cls-2" data-name="Tracé 583"/>
                <path id="prefix__Tracé_584-2" d="M72.286 12.859a.55.55 0 0 1 .2.037.573.573 0 0 1 .329.737L71.779 16.4a.567.567 0 0 1-.73.333.573.573 0 0 1-.33-.737l1.036-2.762a.565.565 0 0 1 .531-.375z" class="prefix__cls-2" data-name="Tracé 584"/>
            </g>
        </g>
        <g id="prefix__favicon" transform="translate(1709.001 860)">
            <g id="prefix__Groupe_74" data-name="Groupe 74">
                <path id="prefix__Tracé_586" d="M8.422 4.677c1.4-.6 2.44-1.131 3.279-1.555a7.824 7.824 0 0 1 2.367-.954A8.5 8.5 0 0 0 8.64.266 7.887 7.887 0 0 0 .787 5.973a19.973 19.973 0 0 0 7.635-1.296z" data-name="Tracé 586" transform="translate(-.624 -.266)"/>
                <path id="prefix__Tracé_587" d="M15.182 3.521a7.259 7.259 0 0 1 .442.689 4.251 4.251 0 0 0-1.562-.3A3.77 3.77 0 0 0 10.13 7.5v.141c-.212.1-.427.2-.649.3C6.1 9.417.767 8.559.714 8.55H.708A6.628 6.628 0 0 1 .624 7.5c0-.208.012-.414.031-.618A20.4 20.4 0 0 0 8.775 5.5c1.407-.616 2.453-1.152 3.295-1.582a12.542 12.542 0 0 1 1.723-.8s.7-.315.841-.184l.186.172a2.84 2.84 0 0 1 .362.415z" class="prefix__cls-14" data-name="Tracé 587" transform="translate(-.624 -.102)"/>
                <path id="prefix__Tracé_588-2" d="M10.3 8.581c-.131.059-.262.119-.4.178a14.728 14.728 0 0 1-5.683.964 25.783 25.783 0 0 1-3.309-.217 7.88 7.88 0 0 0 7.637 5.228 8.065 8.065 0 0 0 7.079-3.944 4.266 4.266 0 0 1-1.565.3A3.917 3.917 0 0 1 10.3 8.581z" data-name="Tracé 588" transform="translate(-.624 .266)"/>
            </g>
        </g>
        <text id="prefix__Favicon-2" data-name="Favicon" transform="translate(1766 873)" style="font-size:13px;font-family:OpenSans-Bold,Open Sans;font-weight:700;fill:#525252">
            <tspan x="0" y="0">Favicon</tspan>
        </text>
        <g id="prefix__btn" transform="translate(904 838)">
            <g transform="translate(-904 -838)">
                <rect id="prefix__bkg-content-2" width="248" height="60" data-name="bkg-content" rx="10" transform="translate(904 838)"/>
            </g>
            <text id="prefix__Nouveau_chantier" data-name="Nouveau chantier" transform="translate(124 36)" style="font-size:15px;letter-spacing:.02em;font-family:OpenSans-Bold,Open Sans;font-weight:700;fill:#fff">
                <tspan x="-66.787" y="0">Nouveau </tspan><tspan y="0" style="font-weight:400;font-family:OpenSans,Open Sans">chantier</tspan>
            </text>
        </g>
        <g id="prefix__logo-3" data-name="logo" transform="translate(63 53.915)">
            <g id="prefix__Groupe_60-2" data-name="Groupe 60" transform="translate(-1156.176 -101.737)">
                <path id="prefix__Rectangle_650-2" d="M0 0H7.011V7.011H0z" class="prefix__cls-21" data-name="Rectangle 650" transform="translate(1241.168 106.433)"/>
                <path id="prefix__Rectangle_651-2" d="M0 0H7.011V20.203H0z" class="prefix__cls-21" data-name="Rectangle 651" transform="translate(1241.168 114.658)"/>
                <path id="prefix__Tracé_588-3" d="M1282.99 123.846h-11.203v6.669l4.192-.293v13.828h7.011v-13.825l4.192.293v-6.669h-4.192z" class="prefix__cls-21" data-name="Tracé 588" transform="translate(-48.047 -9.188)"/>
                <path id="prefix__Tracé_589-2" d="M1244.793 133.227l-2.985-9.38h-7.6l6.429 20.2h7.6l7.75-20.2h-7.6z" class="prefix__cls-21" data-name="Tracé 589" transform="translate(-32.431 -9.188)"/>
                <path id="prefix__Tracé_590-2" d="M1320.51 109.9a2.8 2.8 0 1 0 2.8 2.8 2.8 2.8 0 0 0-2.8-2.8zm0 5.157a2.36 2.36 0 1 1 2.36-2.359 2.362 2.362 0 0 1-2.36 2.364z" class="prefix__cls-21" data-name="Tracé 590" transform="translate(-67.133 -3.395)"/>
                <path id="prefix__Tracé_591-2" d="M1323.089 113.041a.61.61 0 0 0-.246-.521 1.146 1.146 0 0 0-.69-.181h-1.2c-.023 0-.035.02-.035.058v2.653a.052.052 0 0 0 .059.059h.362c.039 0 .059-.023.059-.071v-1.168a.041.041 0 0 1 .047-.047h.538c.047 0 .072.006.076.018a.093.093 0 0 1 .005.029l.445 1.192c.015.032.035.047.058.047h.41a.051.051 0 0 0 .04-.023.062.062 0 0 0 .006-.059l-.491-1.227c-.008-.023 0-.035.011-.035a.717.717 0 0 0 .546-.724zm-1.006.4h-.642a.041.041 0 0 1-.047-.046v-.619a.092.092 0 0 1 .005-.035.024.024 0 0 1 .023-.012h.626c.358 0 .538.122.538.363s-.167.346-.503.346z" class="prefix__cls-21" data-name="Tracé 591" transform="translate(-68.463 -4.406)"/>
                <path id="prefix__Tracé_592-2" d="M1205.692 133.649v.129c0 5.579 5.318 12.939 15.7 9.517v-7.909a4.477 4.477 0 0 1-3.943 2.177 3.933 3.933 0 1 1 0-7.809 4.477 4.477 0 0 1 3.943 2.178v-7.8c-10.382-3.422-15.7 3.938-15.7 9.517z" class="prefix__cls-21" data-name="Tracé 592" transform="translate(-20.578 -8.944)"/>
                <path id="prefix__Tracé_593-2" d="M1166.084 120.346a66.283 66.283 0 0 0 16.709-5.5c2.908-1.415 5.695-3.04 8.452-4.721a11.222 11.222 0 0 1 4.306-1.742c-.156-.155-.316-.305-.477-.455q-.527-.491-1.083-.949l-.1-.082c-.11-.09-.223-.176-.335-.264-.15-.116-.3-.233-.451-.347l-.16-.118c-.063-.046-.128-.091-.192-.136-.2-.142-.4-.282-.6-.418l-.182-.12-.047-.03c-.253-.164-.507-.326-.766-.48l-.06-.034-.03-.017q-.671-.4-1.371-.748l-.055-.028q-.709-.354-1.445-.661h-.006c-.295-.122-.593-.236-.893-.345l-.223-.082-.062-.022q-.224-.079-.451-.153l-.057-.015a23.1 23.1 0 0 0-4.209-.946l-.27-.034c-.207-.025-.415-.044-.623-.063q-.252-.022-.505-.039c-.164-.011-.328-.022-.493-.03-.314-.014-.63-.023-.948-.024h-.237q-.567 0-1.127.033c-.2.011-.4.029-.6.046s-.427.034-.639.057c-.24.026-.477.057-.714.091-.16.022-.319.046-.479.071q-.4.065-.8.143c-.106.021-.212.044-.318.067-.309.066-.618.134-.922.213l-.021.006a23.11 23.11 0 0 0-14.076 10.619l-.108.188q-.3.519-.573 1.055c-.032.063-.065.126-.1.189a22.942 22.942 0 0 0-1.1 2.586c-.021.058-.039.116-.059.174q-.2.586-.372 1.188l-.058.206a22.837 22.837 0 0 0-.589 2.844v.026c.751-.073 1.5-.095 2.253-.147a61.494 61.494 0 0 0 7.266-1.052z" class="prefix__cls-21" data-name="Tracé 593" transform="translate(-.163)"/>
                <path id="prefix__Tracé_594-2" d="M1157.526 135.614a62.487 62.487 0 0 0 9.387.636h.55a41.623 41.623 0 0 0 15.784-3.118 2.977 2.977 0 0 1 .82-.217 10.762 10.762 0 0 1-.227-2.139v-.129a11.99 11.99 0 0 1 2.976-7.69 11.419 11.419 0 0 1 8.859-3.869 16.231 16.231 0 0 1 3.673.455 23.06 23.06 0 0 0-2.3-3.4l-1.222-.112-.194.026a9.654 9.654 0 0 0-3.637 1.5c-2.476 1.509-5.434 3.26-8.6 4.8a68.362 68.362 0 0 1-17.148 5.649 63.744 63.744 0 0 1-7.468 1.075c-.289.02-.578.036-.867.051-.466.025-.907.049-1.34.091l-.349.034c-.03.48-.049.963-.049 1.45a23.066 23.066 0 0 0 .513 4.835l.595.043c.076.007.158.015.244.029z" class="prefix__cls-21" data-name="Tracé 594" transform="translate(0 -5.939)"/>
                <path id="prefix__Tracé_595-2" d="M1185.341 148.107a.394.394 0 0 0-.34-.217 1.06 1.06 0 0 0-.384.1 43.151 43.151 0 0 1-16.445 3.252h-.56a64.31 64.31 0 0 1-9.649-.656c-.038-.006-.074-.01-.107-.012l.135.424a23.023 23.023 0 0 0 40.841 6.047s.722-1.052 1.2-1.926a16.191 16.191 0 0 1-3.658.452 11.382 11.382 0 0 1-11.033-7.464z" class="prefix__cls-21" data-name="Tracé 595" transform="translate(-.698 -19.181)"/>
            </g>
        </g>
        <path id="prefix__Ligne_511" d="M18 0L0 0" data-name="Ligne 511" transform="translate(1738.5 868.5)" style="stroke:#707070;stroke-linecap:round;fill:none"/>
    </g>
</svg>
