<svg xmlns="http://www.w3.org/2000/svg" id="prefix__logo" width="100" height="46.046" viewBox="0 0 100 46.046">
    <defs>
        <style>
            .prefix__cls-1{fill:#fff}
        </style>
    </defs>
    <g id="prefix__Groupe_60" data-name="Groupe 60" transform="translate(-1156.176 -101.737)">
        <path id="prefix__Rectangle_650" d="M0 0H7.011V7.011H0z" class="prefix__cls-1" data-name="Rectangle 650" transform="translate(1241.168 106.433)"/>
        <path id="prefix__Rectangle_651" d="M0 0H7.011V20.203H0z" class="prefix__cls-1" data-name="Rectangle 651" transform="translate(1241.168 114.658)"/>
        <path id="prefix__Tracé_588" d="M1282.99 123.846h-11.203v6.669l4.192-.293v13.828h7.011v-13.825l4.192.293v-6.669h-4.192z" class="prefix__cls-1" data-name="Tracé 588" transform="translate(-48.047 -9.188)"/>
        <path id="prefix__Tracé_589" d="M1244.793 133.227l-2.985-9.38h-7.6l6.429 20.2h7.6l7.75-20.2h-7.6z" class="prefix__cls-1" data-name="Tracé 589" transform="translate(-32.431 -9.188)"/>
        <path id="prefix__Tracé_590" d="M1320.51 109.9a2.8 2.8 0 1 0 2.8 2.8 2.8 2.8 0 0 0-2.8-2.8zm0 5.157a2.36 2.36 0 1 1 2.36-2.359 2.362 2.362 0 0 1-2.36 2.364z" class="prefix__cls-1" data-name="Tracé 590" transform="translate(-67.133 -3.395)"/>
        <path id="prefix__Tracé_591" d="M1323.089 113.041a.61.61 0 0 0-.246-.521 1.146 1.146 0 0 0-.69-.181h-1.2c-.023 0-.035.02-.035.058v2.653a.052.052 0 0 0 .059.059h.362c.039 0 .059-.023.059-.071v-1.168a.041.041 0 0 1 .047-.047h.538c.047 0 .072.006.076.018a.093.093 0 0 1 .005.029l.445 1.192c.015.032.035.047.058.047h.41a.051.051 0 0 0 .04-.023.062.062 0 0 0 .006-.059l-.491-1.227c-.008-.023 0-.035.011-.035a.717.717 0 0 0 .546-.724zm-1.006.4h-.642a.041.041 0 0 1-.047-.046v-.619a.092.092 0 0 1 .005-.035.024.024 0 0 1 .023-.012h.626c.358 0 .538.122.538.363s-.167.346-.503.346z" class="prefix__cls-1" data-name="Tracé 591" transform="translate(-68.463 -4.406)"/>
        <path id="prefix__Tracé_592" d="M1205.692 133.649v.129c0 5.579 5.318 12.939 15.7 9.517v-7.909a4.477 4.477 0 0 1-3.943 2.177 3.933 3.933 0 1 1 0-7.809 4.477 4.477 0 0 1 3.943 2.178v-7.8c-10.382-3.422-15.7 3.938-15.7 9.517z" class="prefix__cls-1" data-name="Tracé 592" transform="translate(-20.578 -8.944)"/>
        <path id="prefix__Tracé_593" d="M1166.084 120.346a66.283 66.283 0 0 0 16.709-5.5c2.908-1.415 5.695-3.04 8.452-4.721a11.222 11.222 0 0 1 4.306-1.742c-.156-.155-.316-.305-.477-.455q-.527-.491-1.083-.949l-.1-.082c-.11-.09-.223-.176-.335-.264-.15-.116-.3-.233-.451-.347l-.16-.118c-.063-.046-.128-.091-.192-.136-.2-.142-.4-.282-.6-.418l-.182-.12-.047-.03c-.253-.164-.507-.326-.766-.48l-.06-.034-.03-.017q-.671-.4-1.371-.748l-.055-.028q-.709-.354-1.445-.661h-.006c-.295-.122-.593-.236-.893-.345l-.223-.082-.062-.022q-.224-.079-.451-.153l-.057-.015a23.1 23.1 0 0 0-4.209-.946l-.27-.034c-.207-.025-.415-.044-.623-.063q-.252-.022-.505-.039c-.164-.011-.328-.022-.493-.03-.314-.014-.63-.023-.948-.024h-.237q-.567 0-1.127.033c-.2.011-.4.029-.6.046s-.427.034-.639.057c-.24.026-.477.057-.714.091-.16.022-.319.046-.479.071q-.4.065-.8.143c-.106.021-.212.044-.318.067-.309.066-.618.134-.922.213l-.021.006a23.11 23.11 0 0 0-14.076 10.619l-.108.188q-.3.519-.573 1.055c-.032.063-.065.126-.1.189a22.942 22.942 0 0 0-1.1 2.586c-.021.058-.039.116-.059.174q-.2.586-.372 1.188l-.058.206a22.837 22.837 0 0 0-.589 2.844v.026c.751-.073 1.5-.095 2.253-.147a61.494 61.494 0 0 0 7.266-1.052z" class="prefix__cls-1" data-name="Tracé 593" transform="translate(-.163)"/>
        <path id="prefix__Tracé_594" d="M1157.526 135.614a62.487 62.487 0 0 0 9.387.636h.55a41.623 41.623 0 0 0 15.784-3.118 2.977 2.977 0 0 1 .82-.217 10.762 10.762 0 0 1-.227-2.139v-.129a11.99 11.99 0 0 1 2.976-7.69 11.419 11.419 0 0 1 8.859-3.869 16.231 16.231 0 0 1 3.673.455 23.06 23.06 0 0 0-2.3-3.4l-1.222-.112-.194.026a9.654 9.654 0 0 0-3.637 1.5c-2.476 1.509-5.434 3.26-8.6 4.8a68.362 68.362 0 0 1-17.148 5.649 63.744 63.744 0 0 1-7.468 1.075c-.289.02-.578.036-.867.051-.466.025-.907.049-1.34.091l-.349.034c-.03.48-.049.963-.049 1.45a23.066 23.066 0 0 0 .513 4.835l.595.043c.076.007.158.015.244.029z" class="prefix__cls-1" data-name="Tracé 594" transform="translate(0 -5.939)"/>
        <path id="prefix__Tracé_595" d="M1185.341 148.107a.394.394 0 0 0-.34-.217 1.06 1.06 0 0 0-.384.1 43.151 43.151 0 0 1-16.445 3.252h-.56a64.31 64.31 0 0 1-9.649-.656c-.038-.006-.074-.01-.107-.012l.135.424a23.023 23.023 0 0 0 40.841 6.047s.722-1.052 1.2-1.926a16.191 16.191 0 0 1-3.658.452 11.382 11.382 0 0 1-11.033-7.464z" class="prefix__cls-1" data-name="Tracé 595" transform="translate(-.698 -19.181)"/>
    </g>
</svg>
