<?xml version="1.0" encoding="utf-8"?>
<!-- Generator: Adobe Illustrator 24.3.0, SVG Export Plug-In . SVG Version: 6.00 Build 0)  -->
<svg version="1.1" id="Calque_1" xmlns="http://www.w3.org/2000/svg" xmlns:xlink="http://www.w3.org/1999/xlink" x="0px" y="0px"
	 viewBox="0 0 618.35 618.13" style="enable-background:new 0 0 618.35 618.13;" xml:space="preserve">
<style type="text/css">
	.st0{fill:none;stroke:#032989;stroke-width:2;stroke-miterlimit:10;}
	.st1{fill:#032989;}
	<!-- #41B6A3 #032989 -->
</style>
<circle class="st0" cx="309.85" cy="309.13" r="300"/>
<g>
	<g>
		<path class="st1" d="M136.73,178.72v62.51h71.22v-62.51h31.59v153.41h-31.59v-62.28h-71.22v62.28h-31.82V178.72H136.73z"/>
		<path class="st1" d="M327.24,175.74c8.86,0,16.95,1.22,24.28,3.66c7.33,2.45,13.51,5.27,18.54,8.47v31.38
			c-5.49-3.37-11.37-6.49-17.63-9.39c-6.27-2.9-13.37-4.35-21.3-4.35c-3.98,0-7.9,0.61-11.8,1.82c-3.88,1.22-7.09,3.06-9.62,5.51
			c-2.51,2.43-3.78,5.57-3.78,9.38c0,5.04,2.22,8.86,6.65,11.45c4.42,2.59,9.84,5.19,16.26,7.78l18.77,7.8
			c10.68,4.58,18.56,10.15,23.58,16.71c5.04,6.57,7.56,14.05,7.56,22.44c0,9.17-2.63,17.21-7.89,24.16
			c-5.27,6.96-12.29,12.41-21.07,16.37c-8.78,3.96-18.52,5.96-29.2,5.96c-9.01,0-17.63-1.53-25.87-4.59
			c-8.25-3.05-15.42-6.78-21.52-11.21v-31.38c6.72,4.9,14.11,9.02,22.21,12.37c8.09,3.37,16.71,5.04,25.87,5.04
			c6.41,0,11.91-1.26,16.48-3.78c4.58-2.53,6.88-6.31,6.88-11.33c0-3.98-1.88-7.22-5.61-9.74c-3.75-2.51-7.82-4.62-12.25-6.29
			l-23.58-9.17c-11.91-4.58-19.97-10.56-24.16-17.97c-4.2-7.41-6.31-15.6-6.31-24.62c0-9.31,2.55-17.44,7.68-24.38
			c5.11-6.94,11.8-12.37,20.03-16.26C308.7,177.68,317.63,175.74,327.24,175.74z"/>
		<path class="st1" d="M510.43,241v25.87h-67.77v37.1h76.71v28.16H410.82V178.72h108.55v27.47h-76.71V241H510.43z"/>
	</g>
</g>
<g>
	<g>
		<path class="st1" d="M129.72,388.64c4.28,0,8.11,1.01,11.49,3.03c3.39,2.01,6.07,4.88,8.01,8.61c1.97,3.72,2.94,8.17,2.94,13.32
			c0,4.72-0.97,8.87-2.94,12.48c-1.94,3.6-4.55,6.41-7.82,8.43c-3.25,2.01-6.89,3.02-10.93,3.02c-3.54,0-6.69-0.93-9.44-2.79
			c-2.77-1.86-4.95-4.03-6.57-6.52v7.91h-7.64v-67.04h7.64v26.72c2-2.23,4.36-3.99,7.13-5.25
			C124.33,389.28,127.06,388.64,129.72,388.64z M128.32,396.18c-2.86,0-5.36,0.67-7.54,2.01c-2.18,1.33-4.26,3.21-6.24,5.63
			l-0.09,8.94c0,3.29,0.64,6.24,1.92,8.85c1.26,2.61,3.03,4.66,5.29,6.15c2.27,1.49,4.8,2.23,7.6,2.23c3.05,0,5.68-0.74,7.91-2.23
			s3.96-3.47,5.21-5.96c1.25-2.49,1.86-5.21,1.86-8.19c0-3.05-0.64-5.88-1.92-8.51c-1.26-2.65-3.09-4.79-5.44-6.44
			C134.53,397.01,131.67,396.18,128.32,396.18z"/>
		<path class="st1" d="M159.7,389.57l16.31,34.27l15.83-34.27h9.13l-34.27,68.9h-8.86l13.33-25.14l-20.59-43.76H159.7z"/>
		<path class="st1" d="M250.13,373.74c3.6,0,7.05,0.82,10.35,2.47c3.29,1.64,6,3.99,8.14,7.08c2.14,3.06,3.22,6.74,3.22,11.03
			c0,3.66-1.04,7.05-3.09,10.15c-2.05,3.1-4.82,5.6-8.33,7.5c-3.51,1.89-7.4,2.83-11.68,2.83c-3.17,0-6.07-0.33-8.71-0.97
			c-2.65-0.67-4.76-1.36-6.37-2.1v24.4h-8.38v-62.39H250.13z M233.66,381.66v22.44c1.68,0.68,3.86,1.32,6.56,1.92
			c2.7,0.59,5.44,0.88,8.23,0.88c4.72,0,8.38-1.22,10.95-3.67c2.57-2.46,3.87-5.43,3.87-8.9c0-2.67-0.74-4.94-2.19-6.8
			c-1.45-1.86-3.37-3.3-5.73-4.34c-2.35-1.01-4.87-1.53-7.53-1.53H233.66z"/>
		<path class="st1" d="M308.53,428.22v7.91H279.1v-7.91h10.52v-46.56H279.1v-7.91h29.42v7.91H298v46.56H308.53z"/>
		<path class="st1" d="M379.4,373.74v62.39h-8.38v-45.16l-19.27,20.58h-2.23l-19.74-20.58v45.16h-8.38v-62.39H324l26.63,28.59
			l26.17-28.59H379.4z"/>
		<path class="st1" d="M421.05,373.74l29.14,62.39h-10.06l-6.52-14.9h-29.24l-6.61,14.9h-10.06l29.14-62.39H421.05z M419.09,387.9
			l-11.27,25.42h22.35L419.09,387.9z"/>
		<path class="st1" d="M510.56,373.74v62.39h-3.17l-40.52-44.6v44.6h-8.38v-62.39h3.17l40.52,45.16v-45.16H510.56z"/>
	</g>
</g>
</svg>
