<svg xmlns="http://www.w3.org/2000/svg" width="41.695" height="83.964" viewBox="0 0 41.695 83.964">
  <path id="Tracé_18576" data-name="Tracé 18576" d="M286.745,126.953a20.266,20.266,0,0,0-10.251-7.486l-.922-.345.576-.691a9.971,9.971,0,0,0,2.189-5.759V112.1l.46-.115c7.141-1.382,10.711-6.911,10.711-16.7V76.16H250.348v19a21.289,21.289,0,0,0,2.764,11.287,11.885,11.885,0,0,0,7.6,5.528l.46.115v.46a8.814,8.814,0,0,0,2.073,5.989l.576.691-.922.345a20.81,20.81,0,0,0-9.905,7.6,20.978,20.978,0,0,0,2.3,26.837,20.847,20.847,0,0,0,35.59-14.743,21.135,21.135,0,0,0-4.146-12.323Zm-21.423-48.26h9.214V108.87h-9.214Zm-2.189,33.632,13.476-.231c.46,2.534-1.843,5.528-2.879,6.45a15.9,15.9,0,0,0-7.717,0c-1.036-.806-3.916-3.34-2.879-6.219Zm15.549,39.391-8.753-4.607-8.753,4.607,1.727-9.791-7.141-6.911,9.791-1.382,4.377-8.869,4.377,8.869,9.791,1.382-7.141,6.911Z" transform="translate(-249.196 -76.16)" fill="#65c4bc"/>
</svg>
