<svg xmlns="http://www.w3.org/2000/svg" id="prefix__picto-edit" width="17.519" height="19.548" viewBox="0 0 17.519 19.548">
    <defs>
        <style>
            .prefix__cls-1{fill:#c9c9c9}
        </style>
    </defs>
    <path id="prefix__Rectangle_642" d="M0 0H16.502V1.266H0z" class="prefix__cls-1" data-name="Rectangle 642" transform="translate(0 18.282)"/>
    <path id="prefix__Tracé_483" d="M-412.315 222.381a2.394 2.394 0 0 0-1.7-.705 2.39 2.39 0 0 0-1.7.705l-9.7 9.7a.635.635 0 0 0-.161.274l-1.437 5.028a.637.637 0 0 0 .161.622.633.633 0 0 0 .448.185.59.59 0 0 0 .174-.024l5.028-1.437a.62.62 0 0 0 .274-.16l9.7-9.7a2.394 2.394 0 0 0 .707-1.7 2.392 2.392 0 0 0-.707-1.705zm-9.4 13.171l-3.775 1.078 1.078-3.775 7.7-7.7 2.7 2.7zm9.58-9.58l-.989.989-2.7-2.7.988-.988a1.146 1.146 0 0 1 1.62 0l1.077 1.077a1.136 1.136 0 0 1 .335.809 1.135 1.135 0 0 1-.329.813z" class="prefix__cls-1" data-name="Tracé 483" transform="translate(428.05 -221.676)"/>
</svg>
