<svg xmlns="http://www.w3.org/2000/svg" width="35.41" height="32.63" viewBox="0 0 35.41 32.63">
  <g id="noun-house-4892528" transform="translate(-223.086 -163.449)">
    <path id="Tracé_18577" data-name="Tracé 18577" d="M257.109,179.347l-13.878-13.885a3.449,3.449,0,0,0-4.881,0l-13.878,13.885a1.217,1.217,0,0,0,.86,2.077h1.854a.6.6,0,0,1,.6.6v9.6a3.457,3.457,0,0,0,3.457,3.456h4.828A1.068,1.068,0,0,0,237.149,194V189.4a3.761,3.761,0,0,1,3.3-3.791,3.657,3.657,0,0,1,4.013,3.635v4.747a1.069,1.069,0,0,0,1.076,1.076h4.829a3.457,3.457,0,0,0,3.442-3.442v-9.6a.6.6,0,0,1,.6-.6h1.854a1.216,1.216,0,0,0,.845-2.077Z" fill="none" stroke="#c7c7c7" stroke-width="2"/>
  </g>
</svg>
