<svg xmlns="http://www.w3.org/2000/svg" id="prefix__picto-visite-de-sécurité-select" width="36.153" height="30" viewBox="0 0 36.153 30">
    <path id="prefix__Tracé_455" d="M44.585 20.5H16.568a4.068 4.068 0 0 0-4.068 4.068v21.864a4.068 4.068 0 0 0 4.068 4.068h28.017a4.068 4.068 0 0 0 4.068-4.068V24.568a4.068 4.068 0 0 0-4.068-4.068zm-.863 28.983h-10.8V47.7a5.4 5.4 0 1 1 10.8 0zm-5.4-8.2a3.625 3.625 0 1 1 3.625-3.625v.005a3.626 3.626 0 0 1-3.625 3.623zm9.314 5.146a3.051 3.051 0 0 1-3.051 3.051h.154V47.7a6.417 6.417 0 0 0-4.154-5.995 4.642 4.642 0 1 0-4.531 0 6.422 6.422 0 0 0-4.149 5.995v1.78H16.568a3.051 3.051 0 0 1-3.051-3.051V24.568a3.152 3.152 0 0 1 2.1-2.9 2.6 2.6 0 0 1 .954-.152h28.014a3.051 3.051 0 0 1 3.051 3.051zm-10.585-18.49a.509.509 0 0 1-.508.508H25.676a.508.508 0 0 1 0-1.017h10.866a.509.509 0 0 1 .509.509zM26.627 36.2a.509.509 0 0 1-.508.508h-9.788a.508.508 0 0 1 0-1.017h9.788a.509.509 0 0 1 .508.509zm0 4.7a.509.509 0 0 1-.508.508h-9.788a.508.508 0 1 1 0-1.017h9.788a.509.509 0 0 1 .508.514z" data-name="Tracé 455" transform="translate(-12.5 -20.5)"/>
</svg>
