<svg xmlns="http://www.w3.org/2000/svg" id="prefix__picto-plan-daction-select" width="29" height="30" viewBox="0 0 29 30">
    <defs>
        <style>
            .prefix__cls-1{fill:#33b5ae}
        </style>
    </defs>
    <path id="prefix__Tracé_439" d="M29.163 4.38h-3.835l1.029-2.723a.548.548 0 0 0-.094-.469.418.418 0 0 0-.374-.188H14.76a.576.576 0 0 0-.374.188.458.458 0 0 0-.047.423l1.029 2.723h-3.835a1.83 1.83 0 0 0-1.824 1.83V12.5h-.42a.449.449 0 0 0-.421.329l-.608 1.739a4.4 4.4 0 0 0-1.076.469l-1.637-.8a.426.426 0 0 0-.514.094L3.771 15.6a.441.441 0 0 0-.094.516l.795 1.69A10.065 10.065 0 0 0 4 18.84l-1.777.61a.451.451 0 0 0-.327.423v1.784a.451.451 0 0 0 .327.423l1.824.657a7.846 7.846 0 0 0 .374.939l-.838 1.784a.43.43 0 0 0 .094.516l1.263 1.268a.437.437 0 0 0 .514.094l1.824-.845a6.231 6.231 0 0 0 .842.329l.655 1.925a.449.449 0 0 0 .421.329h.421v.094A1.83 1.83 0 0 0 11.44 31h17.63a1.83 1.83 0 0 0 1.824-1.831v-23a1.685 1.685 0 0 0-1.731-1.789zm-3.928-2.441c-.094.235-1.59 4.178-1.5 3.944h-6.777c-.047-.094-1.543-4.085-1.5-3.944zM8.961 26.352a.5.5 0 0 0-.327-.282 4.039 4.039 0 0 1-1.122-.47.35.35 0 0 0-.421 0l-1.73.845-.795-.8.795-1.69a.654.654 0 0 0 0-.423 6.4 6.4 0 0 1-.514-1.174.5.5 0 0 0-.281-.329l-1.73-.61v-1.17l1.683-.61a.4.4 0 0 0 .281-.329 5.133 5.133 0 0 1 .514-1.268.353.353 0 0 0 0-.423l-.7-1.6.795-.8L7 15.977a.646.646 0 0 0 .421 0 7.865 7.865 0 0 1 1.309-.563.5.5 0 0 0 .327-.282l.561-1.643h1.122l.561 1.643a.5.5 0 0 0 .327.282 6.486 6.486 0 0 1 1.309.563.35.35 0 0 0 .421 0l1.59-.751.795.8-.748 1.6a.654.654 0 0 0 0 .423 6 6 0 0 1 .514 1.268.5.5 0 0 0 .281.329l1.683.61v1.127l-1.73.61a.422.422 0 0 0-.281.282 4.457 4.457 0 0 1-.514 1.174.353.353 0 0 0 0 .423l.795 1.69-.795.8-1.73-.845a.646.646 0 0 0-.421 0 8.05 8.05 0 0 1-1.122.469.5.5 0 0 0-.327.282l-.655 1.831H9.569zm21.09 2.864a.89.89 0 0 1-.888.892h-17.63a.89.89 0 0 1-.888-.892v-.094h.421a.449.449 0 0 0 .421-.329l.655-1.925c.281-.094.608-.235.842-.329l1.824.845a.426.426 0 0 0 .514-.094l1.263-1.268a.441.441 0 0 0 .094-.516l-.842-1.784a5.609 5.609 0 0 0 .374-.939l1.824-.657a.451.451 0 0 0 .327-.423V19.92a.451.451 0 0 0-.327-.423l-1.685-.657a3.994 3.994 0 0 0-.421-1.033l.795-1.69a.43.43 0 0 0-.094-.516l-1.263-1.268a.437.437 0 0 0-.514-.094l-1.637.8a7.446 7.446 0 0 0-1.076-.469l-.608-1.737a.449.449 0 0 0-.421-.329h-.421v-6.34a.89.89 0 0 1 .888-.892h4.162l.468 1.221a.409.409 0 0 0 .421.282h7.482a.474.474 0 0 0 .421-.282L25 5.272h4.162a.89.89 0 0 1 .888.892z" class="prefix__cls-1" data-name="Tracé 439" transform="translate(-1.9 -1)"/>
    <path id="prefix__Tracé_440" d="M46.209 18.741a.451.451 0 0 0-.655 0l-1.683 1.69a.464.464 0 0 0 .655.657l.888-.892v6.573a1.51 1.51 0 0 1-1.5 1.5h-1.773a2.45 2.45 0 0 0-2.432 2.441v2.77a1.79 1.79 0 1 0 2.245 1.737 1.815 1.815 0 0 0-1.309-1.737v-2.77a1.51 1.51 0 0 1 1.5-1.5h1.777a2.45 2.45 0 0 0 2.432-2.441V20.2l.888.892a.464.464 0 1 0 .655-.657zm-5.144 16.432a.842.842 0 1 1-.842-.845.84.84 0 0 1 .842.845z" class="prefix__cls-1" data-name="Tracé 440" transform="translate(-21.332 -10.337)"/>
    <path id="prefix__Tracé_441" d="M55.246 45.141a.451.451 0 0 0-.655 0l-.748.751-.748-.751a.464.464 0 0 0-.655.657l.748.751-.748.751a.464.464 0 0 0 .655.657l.748-.751.748.751a.464.464 0 1 0 .655-.657l-.748-.751.748-.751a.455.455 0 0 0 0-.657z" class="prefix__cls-1" data-name="Tracé 441" transform="translate(-28.732 -24.343)"/>
    <path id="prefix__Tracé_442" d="M40.415 31.25a1.925 1.925 0 0 0 0-3.85 1.961 1.961 0 0 0-1.915 1.925 1.9 1.9 0 0 0 1.915 1.925zm0-2.958a.986.986 0 0 1 0 1.972 1.022 1.022 0 0 1-.982-.986.934.934 0 0 1 .982-.986z" class="prefix__cls-1" data-name="Tracé 442" transform="translate(-21.383 -15.006)"/>
    <path id="prefix__Tracé_443" d="M37.068 7.139h3.507a.469.469 0 0 0 0-.939h-3.507a.469.469 0 0 0 0 .939z" class="prefix__cls-1" data-name="Tracé 443" transform="translate(-20.373 -3.759)"/>
    <path id="prefix__Tracé_444" d="M19.218 39.97a2.759 2.759 0 1 0-5.518 0 2.8 2.8 0 0 0 2.759 2.77 2.77 2.77 0 0 0 2.759-2.77zm-4.583 0a1.824 1.824 0 1 1 1.824 1.83 1.861 1.861 0 0 1-1.824-1.83z" class="prefix__cls-1" data-name="Tracé 444" transform="translate(-8.182 -20.205)"/>
</svg>
