<svg xmlns="http://www.w3.org/2000/svg" width="34.634" height="33.499" viewBox="0 0 34.634 33.499">
    <defs>
        <style>
            
        </style>
    </defs>
    <g id="prefix__picto-design" transform="translate(.25 .25)">
        <g id="prefix__Groupe_16" data-name="Groupe 16" transform="translate(4.532 3.263)">
            <g id="prefix__Groupe_15" data-name="Groupe 15">
                <path id="prefix__Tracé_445" d="M82.894 60.33a8.616 8.616 0 1 0 2.525 6.094 8.565 8.565 0 0 0-2.525-6.094zm-11.5.694a7.641 7.641 0 0 1 12.935 4.13l-2.672 2.616a1.747 1.747 0 0 0-2.311.553l-3.934-1.233v-.034a1.749 1.749 0 1 0-3.268.867l-2.064 2.138a7.649 7.649 0 0 1 1.32-9.037zm10.17 8.27a.768.768 0 1 1-.768-.767.768.768 0 0 1 .772.767zm-7.136-2.239a.768.768 0 1 1-.768-.767.768.768 0 0 1 .772.767zm7.772 4.769a7.642 7.642 0 0 1-11.579-.908l2.231-2.316a1.747 1.747 0 0 0 2.266-.578l3.933 1.234v.034a1.749 1.749 0 1 0 3.293-.822l2.094-2.047a7.586 7.586 0 0 1-2.238 5.403z" class="prefix__cls-1" data-name="Tracé 445" transform="translate(-68.183 -57.806)"/>
            </g>
        </g>
        <g id="prefix__Groupe_18" data-name="Groupe 18" transform="translate(8.801 5.255)">
            <g id="prefix__Groupe_17" data-name="Groupe 17">
                <path id="prefix__Tracé_446" d="M132.414 89.4l.644.741a5.668 5.668 0 0 1 5.57-1.064l.323-.927a6.653 6.653 0 0 0-6.537 1.25z" class="prefix__cls-1" data-name="Tracé 446" transform="translate(-132.414 -87.783)"/>
            </g>
        </g>
        <g id="prefix__Groupe_20" data-name="Groupe 20" transform="translate(16.088 6.219)">
            <g id="prefix__Groupe_19" data-name="Groupe 19">
                <path id="prefix__Tracé_447" d="M242.557 102.292l-.511.838a5.637 5.637 0 0 1 .741.539l.64-.744a6.635 6.635 0 0 0-.87-.633z" class="prefix__cls-1" data-name="Tracé 447" transform="translate(-242.046 -102.292)"/>
            </g>
        </g>
        <g id="prefix__Groupe_22" data-name="Groupe 22" transform="translate(10.674 17.12)">
            <g id="prefix__Groupe_21" data-name="Groupe 21">
                <path id="prefix__Tracé_448" d="M164.246 266.64a5.661 5.661 0 0 1-3.283-.283l-.365.911a6.646 6.646 0 0 0 3.851.332z" class="prefix__cls-1" data-name="Tracé 448" transform="translate(-160.598 -266.357)"/>
            </g>
        </g>
        <g id="prefix__Groupe_24" data-name="Groupe 24">
            <g id="prefix__Groupe_23" data-name="Groupe 23">
                <path id="prefix__Tracé_449" d="M27.591 12.559a1.748 1.748 0 0 0-2.412 2.358L24.1 15.968A11.889 11.889 0 1 0 3.388 27.374l-.827.857a1.752 1.752 0 1 0 .706.682l.722-.748q.353.426.751.825a11.912 11.912 0 0 0 15.09 1.427l1.77 1.893-.737.737 8.588 8.553 4.579-4.578-8.585-8.553-.713.713-1.768-1.89a11.921 11.921 0 0 0 1.511-10.313l1.4-1.372a1.748 1.748 0 0 0 2.387-2.333 2.113 2.113 0 0 0-.671-.715zm-.885.74a.767.767 0 1 1-.768.767.768.768 0 0 1 .769-.766zM1.749 30.546a.767.767 0 1 1 .768-.767.768.768 0 0 1-.768.767zm3.686-2.252a10.906 10.906 0 1 1 15.426 0 10.915 10.915 0 0 1-15.426.001zm15.189 1.532a11.959 11.959 0 0 0 1.743-1.736l1.671 1.785-1.74 1.74zm8.826 10.386l-7.194-7.167 3.191-3.19 7.194 7.167z" class="prefix__cls-1" data-name="Tracé 449" transform="translate(0 -8.704)"/>
            </g>
        </g>
        <g id="prefix__Groupe_26" data-name="Groupe 26" transform="translate(24.041 22.577)">
            <g id="prefix__Groupe_25" data-name="Groupe 25">
                <path id="prefix__Tracé_450" d="M363.114 348.478l-1.4 1.4.694.694.711-.71 2.71 2.709.694-.694z" class="prefix__cls-1" data-name="Tracé 450" transform="translate(-361.709 -348.478)"/>
            </g>
        </g>
        <g id="prefix__Groupe_28" data-name="Groupe 28" transform="translate(28.997 26.819)">
            <g id="prefix__Groupe_27" data-name="Groupe 27">
                <path id="prefix__Tracé_453" d="M0 0h.981v1.029H0z" class="prefix__cls-1" data-name="Tracé 453" transform="rotate(-45 .838 .347)"/>
            </g>
        </g>
        <g id="prefix__Groupe_30" data-name="Groupe 30" transform="translate(5.319 24.264)">
            <g id="prefix__Groupe_29" data-name="Groupe 29">
                <rect id="prefix__Rectangle_626" width=".982" height="1.069" class="prefix__cls-1" data-name="Rectangle 626" rx=".491"/>
            </g>
        </g>
        <g id="prefix__Groupe_32" data-name="Groupe 32" transform="translate(5.319 30.257)">
            <g id="prefix__Groupe_31" data-name="Groupe 31">
                <rect id="prefix__Rectangle_627" width=".982" height="1.069" class="prefix__cls-1" data-name="Rectangle 627" rx=".491"/>
            </g>
        </g>
        <g id="prefix__Groupe_34" data-name="Groupe 34" transform="translate(13.405 26.326)">
            <g id="prefix__Groupe_33" data-name="Groupe 33">
                <rect id="prefix__Rectangle_628" width=".982" height="1.069" class="prefix__cls-1" data-name="Rectangle 628" rx=".491"/>
            </g>
        </g>
        <g id="prefix__Groupe_36" data-name="Groupe 36" transform="translate(27.474 17.499)">
            <g id="prefix__Groupe_35" data-name="Groupe 35">
                <rect id="prefix__Rectangle_629" width=".982" height="1.069" class="prefix__cls-1" data-name="Rectangle 629" rx=".491"/>
            </g>
        </g>
        <g id="prefix__Groupe_38" data-name="Groupe 38" transform="translate(28.588 8.982)">
            <g id="prefix__Groupe_37" data-name="Groupe 37">
                <rect id="prefix__Rectangle_630" width=".982" height="1.069" class="prefix__cls-1" data-name="Rectangle 630" rx=".491"/>
            </g>
        </g>
        <g id="prefix__Groupe_40" data-name="Groupe 40" transform="translate(31.842 13.492)">
            <g id="prefix__Groupe_39" data-name="Groupe 39">
                <rect id="prefix__Rectangle_631" width=".982" height="1.069" class="prefix__cls-1" data-name="Rectangle 631" rx=".491"/>
            </g>
        </g>
    </g>
</svg>
