<svg xmlns="http://www.w3.org/2000/svg" id="prefix__picto-view" width="22.993" height="16.163" viewBox="0 0 22.993 16.163">
    <defs>
    </defs>
    <path id="prefix__Tracé_475" d="M-373.029 227.262a4.779 4.779 0 0 0-4.774 4.774 4.779 4.779 0 0 0 4.774 4.775 4.78 4.78 0 0 0 4.775-4.775 4.78 4.78 0 0 0-4.775-4.774zm0 8.049a3.278 3.278 0 0 1-3.274-3.275 3.278 3.278 0 0 1 3.274-3.274 3.278 3.278 0 0 1 3.275 3.274 3.279 3.279 0 0 1-3.275 3.275z" class="prefix__cls-1" data-name="Tracé 475" transform="translate(384.525 -223.955)"/>
    <path id="prefix__Tracé_476" d="M-373.029 223.955c-6.339 0-11.5 3.625-11.5 8.081s5.157 8.082 11.5 8.082 11.5-3.626 11.5-8.082-5.16-8.081-11.5-8.081zm0 14.663c-5.512 0-10-2.953-10-6.582s4.484-6.581 10-6.581 10 2.953 10 6.581-4.488 6.582-10 6.582z" class="prefix__cls-1" data-name="Tracé 476" transform="translate(384.525 -223.955)"/>
</svg>
