<svg xmlns="http://www.w3.org/2000/svg" id="prefix__picto-download" width="18.555" height="18.555" viewBox="0 0 18.555 18.555">
    <defs>
    </defs>
    <path id="prefix__Tracé_480" d="M-274.672 232.953a.724.724 0 0 0 .724-.725v-8.878a.725.725 0 0 0-.724-.725.725.725 0 0 0-.725.725v8.878a.724.724 0 0 0 .725.725z" class="prefix__cls-1" data-name="Tracé 480" transform="translate(283.95 -222.625)"/>
    <path id="prefix__Tracé_481" d="M-276.25 235.937a2.168 2.168 0 0 0 1.538.636 2.163 2.163 0 0 0 1.536-.635l4.012-4a.724.724 0 0 0 0-1.025.724.724 0 0 0-1.025 0l-4.013 4a.721.721 0 0 1-.513.213.72.72 0 0 1-.511-.211l-3.937-4a.725.725 0 0 0-1.025-.007.725.725 0 0 0-.008 1.025z" class="prefix__cls-1" data-name="Tracé 481" transform="translate(283.95 -222.625)"/>
    <path id="prefix__Tracé_482" d="M-266.12 237.556a.725.725 0 0 0-.725.724 1.451 1.451 0 0 1-1.449 1.45h-12.756a1.451 1.451 0 0 1-1.45-1.45.725.725 0 0 0-.725-.724.725.725 0 0 0-.725.724 2.9 2.9 0 0 0 2.9 2.9h12.756a2.9 2.9 0 0 0 2.9-2.9.725.725 0 0 0-.726-.724z" class="prefix__cls-1" data-name="Tracé 482" transform="translate(283.95 -222.625)"/>
</svg>
