<svg xmlns="http://www.w3.org/2000/svg" id="prefix__picto-chantier-select" width="29" height="30" viewBox="0 0 29 30">
    <path id="prefix__picto_chantier" d="M18.523 12.812a.816.816 0 0 0-.818.624.856.856 0 0 0 .6 1.009.6.6 0 0 0 .218.027.843.843 0 0 0 .79-.6.87.87 0 0 0-.6-1.036h-.028a.8.8 0 0 0-.162-.024zm13.763.026a.871.871 0 0 0-.164.025h-.027a.8.8 0 0 0-.545 1.009.843.843 0 0 0 .791.6c.082 0 .163-.027.218-.027a.825.825 0 0 0 .572-1.009.814.814 0 0 0-.845-.597zM36.922 14a.832.832 0 0 0-.549 1.432.757.757 0 0 0 .572.218.819.819 0 0 0 .573-1.418.833.833 0 0 0-.596-.232zm-23.022.063a.832.832 0 1 0 .558 1.418l.028-.027a.791.791 0 0 0 0-1.145.827.827 0 0 0-.586-.246zm7.916 2.123a.754.754 0 0 0-.163.032.825.825 0 0 0-.572 1.009.812.812 0 0 0 .79.628.464.464 0 0 0 .191-.028.813.813 0 0 0 .6-.982v-.027a.829.829 0 0 0-.843-.632zm-4.551 0a2.046 2.046 0 1 0 2.044 2.046 2.045 2.045 0 0 0-2.041-2.042zm16.352 0a2.046 2.046 0 1 0 2.044 2.046 2.045 2.045 0 0 0-2.04-2.042zm-4.57 0a.835.835 0 0 0-.826.623v.027a.818.818 0 0 0 .573.982.463.463 0 0 0 .191.028.812.812 0 0 0 .79-.628.837.837 0 0 0-.572-1.009.723.723 0 0 0-.153-.014zm9.231 2.345a.816.816 0 0 0-.818.624v.027a.814.814 0 0 0 .6.982.462.462 0 0 0 .19.027.79.79 0 0 0 .79-.627l-.79-.218.79.191a.813.813 0 0 0-.6-.982.8.8 0 0 0-.159-.015zm-25.647.109a.8.8 0 0 0-.163.023.813.813 0 0 0-.6.982v.055a.843.843 0 0 0 .791.6.6.6 0 0 0 .218-.028.825.825 0 0 0 .572-1.009.816.816 0 0 0-.814-.613zm-.268 4.26A1.35 1.35 0 0 0 11 24.265v8.455a1.367 1.367 0 0 0 1.363 1.364h26.163a1.35 1.35 0 0 0 1.363-1.364v-8.455a1.35 1.35 0 0 0-1.363-1.365zm.273 1.637h5.342l-5.342 6.518zm7.441 0h6.84l-6.786 7.91h-6.515zm8.994 0h7.113l-6.784 7.91h-7.117zm9.184.082v7.8h-6.68zM17.268 34.9a.8.8 0 0 0-.818.818v6.273a.8.8 0 0 0 .818.818.82.82 0 0 0 .818-.818V35.72a.8.8 0 0 0-.818-.82zm16.352 0a.8.8 0 0 0-.818.818v6.273a.8.8 0 0 0 .818.818.82.82 0 0 0 .818-.818V35.72a.8.8 0 0 0-.817-.82z" data-name="picto chantier" transform="translate(-11 -12.812)"/>
</svg>
