<svg xmlns="http://www.w3.org/2000/svg" width="48.25" height="39.108" viewBox="0 0 48.25 39.108">
    <defs>
        <style>
            .prefix__cls-2{fill:#33b5ae;stroke:#33b5ae;stroke-width:.5px}
        </style>
    </defs>
    <g id="prefix__picto-design-1" transform="translate(.25 .25)">
        <g id="prefix__picto_chantier" data-name="picto chantier" transform="translate(19 8.858)">
            <path id="prefix__picto_chantier-2" d="M18.523 12.812a.816.816 0 0 0-.818.624.856.856 0 0 0 .6 1.009.6.6 0 0 0 .218.027.843.843 0 0 0 .79-.6.87.87 0 0 0-.6-1.036h-.028a.8.8 0 0 0-.162-.024zm13.763.026a.871.871 0 0 0-.164.025h-.027a.8.8 0 0 0-.545 1.009.843.843 0 0 0 .791.6c.082 0 .163-.027.218-.027a.825.825 0 0 0 .572-1.009.814.814 0 0 0-.845-.597zM36.922 14a.832.832 0 0 0-.549 1.432.757.757 0 0 0 .572.218.819.819 0 0 0 .573-1.418.833.833 0 0 0-.596-.232zm-23.022.063a.832.832 0 1 0 .558 1.418l.028-.027a.791.791 0 0 0 0-1.145.827.827 0 0 0-.586-.246zm7.916 2.123a.754.754 0 0 0-.163.032.825.825 0 0 0-.572 1.009.812.812 0 0 0 .79.628.464.464 0 0 0 .191-.028.813.813 0 0 0 .6-.982v-.027a.829.829 0 0 0-.843-.632zm-4.551 0a2.046 2.046 0 1 0 2.044 2.046 2.045 2.045 0 0 0-2.041-2.042zm16.352 0a2.046 2.046 0 1 0 2.044 2.046 2.045 2.045 0 0 0-2.04-2.042zm-4.57 0a.835.835 0 0 0-.826.623v.027a.818.818 0 0 0 .573.982.463.463 0 0 0 .191.028.812.812 0 0 0 .79-.628.837.837 0 0 0-.572-1.009.723.723 0 0 0-.153-.014zm9.231 2.345a.816.816 0 0 0-.818.624v.027a.814.814 0 0 0 .6.982.462.462 0 0 0 .19.027.79.79 0 0 0 .79-.627l-.79-.218.79.191a.813.813 0 0 0-.6-.982.8.8 0 0 0-.159-.015zm-25.647.109a.8.8 0 0 0-.163.023.813.813 0 0 0-.6.982v.055a.843.843 0 0 0 .791.6.6.6 0 0 0 .218-.028.825.825 0 0 0 .572-1.009.816.816 0 0 0-.814-.613zm-.268 4.26A1.35 1.35 0 0 0 11 24.265v8.455a1.367 1.367 0 0 0 1.363 1.364h26.163a1.35 1.35 0 0 0 1.363-1.364v-8.455a1.35 1.35 0 0 0-1.363-1.365zm.273 1.637h5.342l-5.342 6.518zm7.441 0h6.84l-6.786 7.91h-6.515zm8.994 0h7.113l-6.784 7.91h-7.117zm9.184.082v7.8h-6.68zM17.268 34.9a.8.8 0 0 0-.818.818v6.273a.8.8 0 0 0 .818.818.82.82 0 0 0 .818-.818V35.72a.8.8 0 0 0-.818-.82zm16.352 0a.8.8 0 0 0-.818.818v6.273a.8.8 0 0 0 .818.818.82.82 0 0 0 .818-.818V35.72a.8.8 0 0 0-.817-.82z" data-name="picto chantier" transform="translate(-11 -12.812)" style="fill:#33b5ae"/>
        </g>
        <g id="prefix__Composant_37_1" data-name="Composant 37 – 1">
            <path id="prefix__Tracé_489" d="M560.533 289.471h9.787a.508.508 0 0 0 0-1.017h-9.787a.508.508 0 1 0 0 1.017z" class="prefix__cls-2" data-name="Tracé 489" transform="translate(-556.702 -273.263)"/>
            <path id="prefix__Tracé_490" d="M569.878 281.21h10.867a.508.508 0 0 0 0-1.017h-10.867a.508.508 0 1 0 0 1.017z" class="prefix__cls-2" data-name="Tracé 490" transform="translate(-556.702 -273.263)"/>
            <path id="prefix__Tracé_491" d="M588.786 273.263H560.77a4.068 4.068 0 0 0-4.068 4.068V299.2a4.068 4.068 0 0 0 4.068 4.068h28.016a4.068 4.068 0 0 0 4.068-4.068v-21.869a4.068 4.068 0 0 0-4.068-4.068zm3.052 25.929a3.045 3.045 0 0 1-2.9 3.036l-28.17.015a3.05 3.05 0 0 1-3.051-3.051v-21.861a3.15 3.15 0 0 1 2.1-2.9 2.6 2.6 0 0 1 .954-.152h28.013a3.051 3.051 0 0 1 3.052 3.051z" class="prefix__cls-2" data-name="Tracé 491" transform="translate(-556.702 -273.263)"/>
            <path id="prefix__Tracé_492" d="M570.32 293.154h-9.787a.508.508 0 1 0 0 1.017h9.787a.508.508 0 0 0 0-1.017z" class="prefix__cls-2" data-name="Tracé 492" transform="translate(-556.702 -273.263)"/>
        </g>
    </g>
</svg>
