<svg xmlns="http://www.w3.org/2000/svg" width="39.49" height="31.922" viewBox="0 0 39.49 31.922">
  <path id="ppicto" d="M13.917,24.89h0c8.516,2.848,14.481,3.939,19.78,1.3C29.634,10.16,18.015,14.255,9.343,9.429c11.6,3.223,19.333,1.059,24.108,9.475A45.792,45.792,0,0,1,37,31.053a1.015,1.015,0,0,0,1.791.494l.471-.578a1.013,1.013,0,0,0,.2-.889,82.575,82.575,0,0,0-3.015-9.521c1.963-7.778.831-14.962-6.673-17.472h0C22.594.831,14.242,1.421,8.8,1.039,3.227.913.511-.167.31.022.419.03-.761,6.455.874,11.941,2.352,17.773,6.741,22.634,13.917,24.89" transform="translate(0 0)" fill="#318778"/>
</svg>
