<svg xmlns="http://www.w3.org/2000/svg" width="56.569" height="126.775" viewBox="0 0 56.569 126.775">
  <g id="Groupe_274" data-name="Groupe 274" transform="translate(0.032)">
    <path id="Tracé_18570" data-name="Tracé 18570" d="M42.877,18.9l-13.538,53.7c-.689,1.61-1.8,1.607-2.472,0L13.678,18.92a1.97,1.97,0,0,1,1.956-2.938H40.953a1.945,1.945,0,0,1,1.928,2.924M54.371,6.8H2.219A1.975,1.975,0,0,0,.26,9.739l26.424,98.685c.667,1.614,1.766,1.617,2.472,0L56.3,9.711a1.952,1.952,0,0,0-1.932-2.924" transform="translate(-0.033 17.14)" fill="#2f8375"/>
    <path id="Tracé_18571" data-name="Tracé 18571" d="M8.852,19.457h1.914A4.037,4.037,0,0,0,14.6,16.279l.374-2.062L16.963,3.178,17.538,0H12.362A4.04,4.04,0,0,0,8.531,3.178L6.168,16.271a2.624,2.624,0,0,0,2.006,3.122,2.737,2.737,0,0,0,.678.056" transform="translate(15.426)" fill="#2f8375"/>
  </g>
</svg>
