<svg xmlns="http://www.w3.org/2000/svg" width="33.08" height="30.482" viewBox="0 0 33.08 30.482">
  <g id="noun-venn-diagram-105437" transform="translate(110.884 88.627) rotate(-180)">
    <path id="Tracé_18572" data-name="Tracé 18572" d="M121.11,58.145a9.671,9.671,0,0,0-6.571,2.6,9.674,9.674,0,0,0-6.572-2.6A10.222,10.222,0,0,0,98,68.58a10.436,10.436,0,0,0,6.575,9.811,9.967,9.967,0,1,0,19.927,0,10.437,10.437,0,0,0,6.577-9.811A10.222,10.222,0,0,0,121.11,58.145Zm-4.772,9.789a9.377,9.377,0,0,0-3.6,0,8.984,8.984,0,0,1,1.8-4.817A8.977,8.977,0,0,1,116.338,67.934ZM112.77,69.6a7.938,7.938,0,0,1,3.538,0,8.977,8.977,0,0,1-1.769,4.444A8.974,8.974,0,0,1,112.77,69.6Zm.671,5.637a8.146,8.146,0,0,1-5.474,2.137,8.023,8.023,0,0,1-1.768-.2,8.778,8.778,0,0,1,5.049-7.07,10.636,10.636,0,0,0,2.193,5.133Zm4.39-5.133a8.779,8.779,0,0,1,5.049,7.07,7.991,7.991,0,0,1-1.769.2,8.143,8.143,0,0,1-5.473-2.137,10.633,10.633,0,0,0,2.192-5.133ZM99.567,68.58a8.613,8.613,0,0,1,8.4-8.793,8.142,8.142,0,0,1,5.473,2.136,10.678,10.678,0,0,0-2.295,6.46,10.364,10.364,0,0,0-6.468,8.286,8.821,8.821,0,0,1-5.112-8.088ZM114.54,86.988a8.575,8.575,0,0,1-8.37-8.146,9.575,9.575,0,0,0,1.8.172,9.674,9.674,0,0,0,6.571-2.6,9.675,9.675,0,0,0,6.571,2.6,9.571,9.571,0,0,0,1.8-.172,8.575,8.575,0,0,1-8.37,8.146ZM124.4,76.67a10.369,10.369,0,0,0-6.469-8.288,10.664,10.664,0,0,0-2.295-6.46,8.147,8.147,0,0,1,5.474-2.136,8.614,8.614,0,0,1,8.4,8.793A8.824,8.824,0,0,1,124.4,76.67Z" transform="translate(-20.196 0)" fill="#c7c7c7"/>
  </g>
</svg>
