<svg xmlns="http://www.w3.org/2000/svg" width="48.201" height="38.318" viewBox="0 0 48.201 38.318">
  <g id="picto_2" data-name="picto 2" transform="translate(-281.809 -438.969)">
    <path id="Tracé_18566" data-name="Tracé 18566" d="M88.368,35.627h6.078V15.064H88.368Zm37.622-14.02c-2.392.44-6.31,11.449-18.926,1.869h7.593s1.753.117,1.753-1.286v-3.5s-.351-1.753-1.753-1.753H97.015V31.887s11.917,3.74,16.123,3.74c0,0,10.514.47,17.525-7.711,0,0-2.279-6.744-4.674-6.31" transform="translate(193.441 441.655)" fill="#318778"/>
    <path id="Tracé_18567" data-name="Tracé 18567" d="M124.81,3.881c-2.014-1.6-5.953-.128-7.706,6.024-1.752-6.152-5.691-7.628-7.7-6.024-6.161,4.9,1.625,16.442,7.7,17.512,6.081-1.069,13.865-12.609,7.706-17.512" transform="translate(202.948 435.689)" fill="#65c4bc" fill-rule="evenodd"/>
  </g>
</svg>
