<svg xmlns="http://www.w3.org/2000/svg" id="prefix__picto-close-see" width="26.998" height="13.563" viewBox="0 0 26.998 13.563">
    <defs>
        <style>
            .prefix__cls-1{fill:#171717}
        </style>
    </defs>
    <g id="prefix__Groupe_72" data-name="Groupe 72" transform="translate(-52.042 -33.668)">
        <path id="prefix__Tracé_578" d="M65.542 40.682c4.757 0 9.225-1.956 13.268-5.823a.733.733 0 0 0 .061-1c-.629-.607-1.67.429-1.67.429a17.21 17.21 0 0 1-11.66 4.9 17.211 17.211 0 0 1-11.661-4.9s-1.041-1.036-1.67-.429a.733.733 0 0 0 .061 1c4.043 3.867 8.511 5.823 13.268 5.823z" class="prefix__cls-1" data-name="Tracé 578"/>
    </g>
    <g id="prefix__Groupe_73" data-name="Groupe 73" transform="translate(-52.042 -33.668)">
        <path id="prefix__Tracé_580" d="M77.659 43.174a.6.6 0 0 0 .37-.127.561.561 0 0 0 .088-.8l-1.906-2.3a.6.6 0 0 0-.819-.095l-.01.008a.561.561 0 0 0-.088.8l1.9 2.3a.59.59 0 0 0 .465.214z" class="prefix__cls-1" data-name="Tracé 580"/>
        <path id="prefix__Tracé_581" d="M65.772 47.231a.58.58 0 0 0 .587-.572v-2.953a.579.579 0 0 0-.587-.571.58.58 0 0 0-.588.571v2.949a.579.579 0 0 0 .583.575z" class="prefix__cls-1" data-name="Tracé 581"/>
        <path id="prefix__Tracé_582" d="M53.9 43.124a.593.593 0 0 0 .458-.213l1.9-2.3a.561.561 0 0 0-.089-.8.6.6 0 0 0-.822.078l-.007.009-1.9 2.3a.561.561 0 0 0 .089.8.591.591 0 0 0 .371.126z" class="prefix__cls-1" data-name="Tracé 582"/>
        <path id="prefix__Tracé_583" d="M59.047 46.011a.588.588 0 0 0 .55-.369l1.078-2.761a.568.568 0 0 0-.341-.738.6.6 0 0 0-.758.331L58.5 45.236a.563.563 0 0 0 .339.737.6.6 0 0 0 .208.038z" class="prefix__cls-1" data-name="Tracé 583"/>
        <path id="prefix__Tracé_584" d="M72.466 46.052a.606.606 0 0 0 .207-.037.566.566 0 0 0 .341-.737l-1.073-2.762a.6.6 0 0 0-.756-.334.566.566 0 0 0-.342.737l1.074 2.762a.586.586 0 0 0 .549.371z" class="prefix__cls-1" data-name="Tracé 584"/>
    </g>
</svg>
