<svg xmlns="http://www.w3.org/2000/svg" width="41.182" height="44.066" viewBox="0 0 41.182 44.066">
  <g id="picto" transform="translate(0 0)">
    <path id="Tracé_18568" data-name="Tracé 18568" d="M42.111,59.866c-.046,9.189-7.533,17.657-16.725,17.608S8.789,69.059,8.845,59.866Z" transform="translate(-4.936 -33.408)" fill="#318778"/>
    <path id="Tracé_18569" data-name="Tracé 18569" d="M39.361,17.37H38.1A17.991,17.991,0,0,0,28.3,5.187L27.51,16.321a1.326,1.326,0,0,1-1.321,1.232c-.031,0-.063,0-.1,0a1.326,1.326,0,0,1-1.229-1.416L25.7,4.357a1.323,1.323,0,0,1,.123-.464V3.536A3.536,3.536,0,0,0,22.288,0H18.893a3.536,3.536,0,0,0-3.536,3.536v.681c-.054.016-.107.038-.161.055,0,.029.012.056.015.085l.835,11.777a1.326,1.326,0,0,1-1.229,1.416c-.032,0-.063,0-.1,0A1.326,1.326,0,0,1,13.4,16.321l-.78-11.006A17.985,17.985,0,0,0,3.091,17.37H1.82C.815,17.37,0,18.592,0,20.1s.815,2.73,1.82,2.73H39.361c1.005,0,1.82-1.222,1.82-2.73s-.815-2.73-1.82-2.73" transform="translate(0 0)" fill="#65c4bc"/>
  </g>
</svg>
