<svg xmlns="http://www.w3.org/2000/svg" width="28.006" height="30.828" viewBox="0 0 28.006 30.828">
  <g id="picto" transform="translate(1 1)">
    <path id="Tracé_18568" data-name="Tracé 18568" d="M29.852,59.866c-.029,5.8-4.757,11.15-10.562,11.119S8.81,65.671,8.845,59.866Z" transform="translate(-6.376 -42.158)" fill="none" stroke="#c7c7c7" stroke-width="2"/>
    <path id="Tracé_18569" data-name="Tracé 18569" d="M24.856,10.969h-.8a11.361,11.361,0,0,0-6.187-7.693l-.5,7.031a.837.837,0,0,1-.834.778l-.06,0a.837.837,0,0,1-.776-.894l.527-7.437a.836.836,0,0,1,.078-.293V2.233A2.233,2.233,0,0,0,14.075,0H11.931A2.233,2.233,0,0,0,9.7,2.233v.43c-.034.01-.067.024-.1.035,0,.018.008.035.009.054l.527,7.437a.837.837,0,0,1-.776.894l-.06,0a.837.837,0,0,1-.834-.778L7.97,3.356a11.358,11.358,0,0,0-6.018,7.613h-.8c-.635,0-1.15.772-1.15,1.724s.515,1.724,1.15,1.724H24.856c.635,0,1.15-.772,1.15-1.724s-.515-1.724-1.15-1.724" transform="translate(0 0)" fill="none" stroke="#c7c7c7" stroke-width="2"/>
  </g>
</svg>
