<svg xmlns="http://www.w3.org/2000/svg" id="prefix__picto-delet" width="18.05" height="18.125" viewBox="0 0 18.05 18.125">
    <defs>
    </defs>
    <g id="prefix__delet">
        <path id="prefix__Tracé_477" d="M-316.566 223.974h-4.272a.742.742 0 0 0 .05-.25.75.75 0 0 0-.75-.75h-6.607a.75.75 0 0 0-.75.75.742.742 0 0 0 .051.25h-4.272a.75.75 0 0 0-.75.75.75.75 0 0 0 .75.75h1.065v13.463a2.164 2.164 0 0 0 2.161 2.162h10.1a2.165 2.165 0 0 0 2.162-2.162v-13.463h1.064a.75.75 0 0 0 .75-.75.75.75 0 0 0-.752-.75zm-2.564 14.963a.663.663 0 0 1-.662.662h-10.1a.663.663 0 0 1-.661-.662v-13.463h11.421z" class="prefix__cls-1" data-name="Tracé 477" transform="translate(333.866 -222.974)"/>
        <path id="prefix__Tracé_478" d="M-326.193 237.493a.75.75 0 0 0 .75-.75v-8.864a.75.75 0 0 0-.75-.75.75.75 0 0 0-.75.75v8.864a.75.75 0 0 0 .75.75z" class="prefix__cls-1" data-name="Tracé 478" transform="translate(333.866 -222.974)"/>
        <path id="prefix__Tracé_479" d="M-323.5 237.493a.75.75 0 0 0 .75-.75v-8.864a.75.75 0 0 0-.75-.75.75.75 0 0 0-.75.75v8.864a.75.75 0 0 0 .75.75z" class="prefix__cls-1" data-name="Tracé 479" transform="translate(333.866 -222.974)"/>
    </g>
</svg>
