<svg xmlns="http://www.w3.org/2000/svg" id="prefix__picto-open-see" width="26.981" height="19.002" viewBox="0 0 26.981 19.002">
    <defs>
        <style>
            .prefix__cls-1{fill:#171717}
        </style>
    </defs>
    <g id="prefix__Groupe_72" data-name="Groupe 72" transform="translate(-52.05 -11.68)">
        <path id="prefix__Tracé_579" d="M61.869 24.346a3.787 3.787 0 1 0 3.788-3.82 3.786 3.786 0 0 0-3.788 3.82zm2.791 1.412a.565.565 0 0 1-1.129 0V25.7a.569.569 0 0 1 .565-.568.556.556 0 0 1 .4.168.564.564 0 0 1 .168.4zm1.708-2.508a.8.8 0 0 1 .571.239.819.819 0 0 1 .235.577v.083a.81.81 0 0 1-.806.814.811.811 0 0 1-.809-.814v-.084a.814.814 0 0 1 .809-.814z" class="prefix__cls-1" data-name="Tracé 579" transform="rotate(74.99 65.654 24.324)"/>
        <path id="prefix__Tracé_585" d="M79.031 24.313a.7.7 0 0 0-.021-.17c-.01-.019-.01-.043-.01-.057a.737.737 0 0 0-.186-.319c-4.047-3.867-8.514-5.823-13.272-5.823-4.756 0-9.225 1.956-13.268 5.823a.725.725 0 0 0-.185.319c-.007.019-.01.038-.015.057a.7.7 0 0 0 0 .34c.005.019.008.038.015.057a.725.725 0 0 0 .185.319c4.043 3.867 8.512 5.823 13.268 5.823 4.757 0 9.225-1.956 13.268-5.823a.737.737 0 0 0 .19-.319c.006-.019.009-.038.014-.057a.7.7 0 0 0 .017-.17zm-13.49 4.875a17.2 17.2 0 0 1-11.631-4.875 17.2 17.2 0 0 1 11.631-4.875 17.2 17.2 0 0 1 11.63 4.875 17.2 17.2 0 0 1-11.63 4.875z" class="prefix__cls-1" data-name="Tracé 585"/>
    </g>
    <g id="prefix__Groupe_73" data-name="Groupe 73" transform="translate(-52.05 -11.68)">
        <path id="prefix__Tracé_580" d="M77.3 15.737a.56.56 0 0 1 .356.127.575.575 0 0 1 .085.8l-1.838 2.3a.564.564 0 0 1-.791.094l-.009-.007a.574.574 0 0 1-.085-.8l1.838-2.3a.561.561 0 0 1 .444-.214z" class="prefix__cls-1" data-name="Tracé 580"/>
        <path id="prefix__Tracé_581" d="M65.828 11.68a.57.57 0 0 1 .567.572V15.2a.569.569 0 0 1-.567.571.568.568 0 0 1-.567-.571v-2.945a.567.567 0 0 1 .563-.575z" class="prefix__cls-1" data-name="Tracé 581"/>
        <path id="prefix__Tracé_582" d="M54.378 15.787a.561.561 0 0 1 .442.213l1.837 2.3a.574.574 0 0 1-.086.8.564.564 0 0 1-.793-.078l-.007-.009-1.837-2.3a.573.573 0 0 1 .086-.8.555.555 0 0 1 .358-.126z" class="prefix__cls-1" data-name="Tracé 582"/>
        <path id="prefix__Tracé_583" d="M59.341 12.9a.566.566 0 0 1 .53.369l1.04 2.761a.575.575 0 0 1-.329.738.568.568 0 0 1-.731-.331l-1.04-2.761a.569.569 0 0 1 .53-.775z" class="prefix__cls-1" data-name="Tracé 583"/>
        <path id="prefix__Tracé_584" d="M72.286 12.859a.55.55 0 0 1 .2.037.573.573 0 0 1 .329.737L71.779 16.4a.567.567 0 0 1-.73.333.573.573 0 0 1-.33-.737l1.036-2.762a.565.565 0 0 1 .531-.375z" class="prefix__cls-1" data-name="Tracé 584"/>
    </g>
</svg>
