<svg xmlns="http://www.w3.org/2000/svg" id="prefix__picto-administration" width="40" height="30" viewBox="0 0 40 30">
    <defs>
        <style>
            .prefix__cls-1{fill:#004fc2}
        </style>
    </defs>
    <path id="prefix__Tracé_457" d="M277.344 367.543h2.928a.356.356 0 1 0 0-.713h-2.928a.356.356 0 1 0 0 .713z" class="prefix__cls-1" data-name="Tracé 457" transform="translate(-255.069 -341.955)"/>
    <path id="prefix__Tracé_458" d="M277.344 387.753h2.928a.356.356 0 1 0 0-.713h-2.928a.356.356 0 1 0 0 .713z" class="prefix__cls-1" data-name="Tracé 458" transform="translate(-255.069 -360.364)"/>
    <ellipse id="prefix__Ellipse_27" cx=".364" cy=".356" class="prefix__cls-1" data-name="Ellipse 27" rx=".364" ry=".356" transform="translate(7.218 29.287)"/>
    <path id="prefix__Tracé_459" d="M185.747 100.085a8.115 8.115 0 0 0 2.081 2.438 5.206 5.206 0 0 0 1.361.748 4.577 4.577 0 0 0 1.566.276h.008a4.576 4.576 0 0 0 1.565-.276 5.2 5.2 0 0 0 1.36-.748A9.478 9.478 0 0 0 196.5 98.6a12.138 12.138 0 0 0 .958-4.4 6.442 6.442 0 0 0-.937-3.346 6.665 6.665 0 0 0-2.455-2.357.377.377 0 0 0-.18-.046.366.366 0 0 0-.317.18.354.354 0 0 0 .137.486 5.84 5.84 0 0 1 3.024 5.082 11.961 11.961 0 0 1-1.593 5.527 7.52 7.52 0 0 1-1.892 2.226 3.969 3.969 0 0 1-4.974 0 8.637 8.637 0 0 1-2.581-3.625 11.514 11.514 0 0 1-.9-4.128 5.747 5.747 0 0 1 1.749-4.132 6 6 0 0 1 4.223-1.71.356.356 0 1 0 0-.713 6.794 6.794 0 0 0-2.608.514 6.7 6.7 0 0 0-2.13 1.4 6.509 6.509 0 0 0-1.435 2.084 6.391 6.391 0 0 0-.527 2.553 11.018 11.018 0 0 0 .43 2.859 12.981 12.981 0 0 0 1.255 3.031z" class="prefix__cls-1" data-name="Tracé 459" transform="translate(-170.611 -87.65)"/>
    <path id="prefix__Tracé_460" d="M269.7 90.153a.354.354 0 0 0 .082.01.362.362 0 0 0 .354-.276.347.347 0 0 0-.046-.269.359.359 0 0 0-.227-.159.368.368 0 0 0-.083-.009.362.362 0 0 0-.354.275.357.357 0 0 0 .274.428z" class="prefix__cls-1" data-name="Tracé 460" transform="translate(-248.194 -89.29)"/>
    <path id="prefix__Tracé_461" d="M76.15 226.849l-4.181-1.609-.764-.677a.374.374 0 0 0-.282-.091.364.364 0 0 0-.257.144L68.88 227l-1.788-2.388a.364.364 0 0 0-.258-.144.369.369 0 0 0-.281.092l-.757.676-4.184 1.609a.359.359 0 0 0-.231.331v1.952l-.992-.886a.373.373 0 0 0-.282-.091.364.364 0 0 0-.258.144l-3.437 4.593-3.439-4.588a.365.365 0 0 0-.258-.144.37.37 0 0 0-.282.092l-1.054.944v-2.012a.358.358 0 0 0-.231-.331l-4.184-1.61-.757-.676a.369.369 0 0 0-.539.052L43.877 227l-1.789-2.388a.364.364 0 0 0-.257-.144.373.373 0 0 0-.282.092l-.757.676-4.181 1.609a.359.359 0 0 0-.23.331v5.131a.354.354 0 0 0 .107.252.371.371 0 0 0 .258.1h6.525a.341.341 0 0 0-.007.063v7.738a.364.364 0 0 0 .729 0v-7.5l7.078-2.722 3 5.378a.364.364 0 0 0 .265.179.34.34 0 0 0 .053 0h.048a.375.375 0 0 0 .049-.01l.027-.008a.374.374 0 0 0 .048-.022l.022-.012a.365.365 0 0 0 .062-.047l1.77-1.72 1.587 1.45a.365.365 0 0 0 .06.043l.015.008a.366.366 0 0 0 .055.024h.018a.372.372 0 0 0 .057.011h.041a.459.459 0 0 0 .05 0 .362.362 0 0 0 .261-.168l3.178-5.118.366.141 6.722 2.586v8.593h-3.576v-5.432a.364.364 0 0 0-.729 0v5.415H48.3v-5.415a.364.364 0 0 0-.729 0v5.432h-1.79a.356.356 0 1 0 0 .713H69.2a.369.369 0 0 0 .258-.1.351.351 0 0 0 .107-.252v-9.192a.339.339 0 0 0-.006-.063h6.46a.367.367 0 0 0 .258-.1.349.349 0 0 0 .107-.252v-5.12a.36.36 0 0 0-.234-.331zm-5.135-1.492l.291.257-.475.763-1 1.61-.464-.426zm-4.27 0l1.657 2.212-.562.546-1.392-2.493zm-6.545 3.685l.929.829-2.949 4.749-1.28-1.169zm-7.572 0l3.308 4.417-.344.334-1.11 1.078-2.789-4.993zm-6.611-3.684l.3.265-1.192 2.13-.2.363-.562-.546zm-4.275 0l1.652 2.2-.467.426-1.04-1.678-.429-.692zm-4.632 2.066l3.726-1.434.425.686 1.158 1.866.116.186a.354.354 0 0 0 .111.113.366.366 0 0 0 .131.051h.109a.37.37 0 0 0 .057-.011l.019-.005a.373.373 0 0 0 .052-.022l.019-.009a.376.376 0 0 0 .061-.044l.774-.707.879.853a.355.355 0 0 0 .045.036l.016.011a.369.369 0 0 0 .047.024l.021.008a.382.382 0 0 0 .049.014h.016a.37.37 0 0 0 .054.005h.06a.364.364 0 0 0 .267-.182l.383-.684 1.228-2.194 3.716 1.429v2.2l-6.076 2.335h-7.464zm38.543 4.532h-7.468l-5.986-2.3-.09-.035v-2.2l3.716-1.429 1.326 2.373.282.505a.365.365 0 0 0 .268.182.338.338 0 0 0 .052 0h.048a.36.36 0 0 0 .053-.011l.021-.006a.365.365 0 0 0 .059-.027l.012-.006a.358.358 0 0 0 .064-.049l.1-.093.783-.759.771.707a.384.384 0 0 0 .032.023l.026.019c.009.006.02.01.03.015a.354.354 0 0 0 .038.016l.034.009.037.007h.096a.4.4 0 0 0 .262-.168l1.706-2.744 3.726 1.435z" class="prefix__cls-1" data-name="Tracé 461" transform="translate(-36.38 -212.279)"/>
    <path id="prefix__Tracé_462" d="M353.306 133.544a2.863 2.863 0 0 0 1.729.6h.007a2.862 2.862 0 0 0 1.731-.6 5.358 5.358 0 0 0 1.621-2.257 7 7 0 0 0 .544-2.518 3.757 3.757 0 0 0-1.141-2.7 3.914 3.914 0 0 0-2.758-1.119 3.865 3.865 0 0 0-3.9 3.819 7.2 7.2 0 0 0 .963 3.366 4.711 4.711 0 0 0 1.204 1.409zm-.507-6.97a3.216 3.216 0 0 1 4.483 0 3.059 3.059 0 0 1 .928 2.2 6.493 6.493 0 0 1-.866 3.013 4.019 4.019 0 0 1-1.014 1.2 2.052 2.052 0 0 1-2.58 0 4.658 4.658 0 0 1-1.389-1.958 6.272 6.272 0 0 1-.494-2.252 3.055 3.055 0 0 1 .933-2.204z" class="prefix__cls-1" data-name="Tracé 462" transform="translate(-322.476 -121.627)"/>
    <path id="prefix__Tracé_463" d="M77.336 133.544a2.859 2.859 0 0 0 1.729.6h.007a2.868 2.868 0 0 0 1.731-.6 5.368 5.368 0 0 0 1.623-2.257 6.974 6.974 0 0 0 .547-2.518 3.757 3.757 0 0 0-1.145-2.7 3.95 3.95 0 0 0-5.517 0 3.755 3.755 0 0 0-1.143 2.7 7.192 7.192 0 0 0 .963 3.366 4.712 4.712 0 0 0 1.205 1.409zm-.508-6.97a3.219 3.219 0 0 1 4.487 0 3.052 3.052 0 0 1 .931 2.2 6.486 6.486 0 0 1-.87 3.013 4.025 4.025 0 0 1-1.016 1.2 2.049 2.049 0 0 1-2.58 0 4.659 4.659 0 0 1-1.389-1.958 6.251 6.251 0 0 1-.493-2.252 3.056 3.056 0 0 1 .93-2.204z" class="prefix__cls-1" data-name="Tracé 463" transform="translate(-71.638 -121.627)"/>
    <path id="prefix__Tracé_464" d="M209.371 136.29a.664.664 0 0 0-.321.1l-.017.009a9.254 9.254 0 0 0-1.35 1.122 2.978 2.978 0 0 1-1.914.635h-.017a3.1 3.1 0 0 1-1.394-.313 2.335 2.335 0 0 1-1.031-1.013.365.365 0 0 0-.324-.194.368.368 0 0 0-.166.039.36.36 0 0 0-.181.208.347.347 0 0 0 .023.271 3.056 3.056 0 0 0 1.345 1.321 3.852 3.852 0 0 0 1.729.392 4.333 4.333 0 0 0 1.35-.217 3.029 3.029 0 0 0 1.081-.614c.327-.3.6-.544.805-.717v.085a.714.714 0 0 0 .139.454.66.66 0 0 0 .517.237h.019a1.728 1.728 0 0 0 .576-.122 5.038 5.038 0 0 1 1.49-.33h.017a1.025 1.025 0 0 1 .463.089.37.37 0 0 1 .2.252.365.365 0 0 0 .351.261.4.4 0 0 0 .1-.012.361.361 0 0 0 .219-.168.347.347 0 0 0 .035-.27 1.091 1.091 0 0 0-.556-.691 1.718 1.718 0 0 0-.814-.174 5.38 5.38 0 0 0-1.755.374 1.354 1.354 0 0 1-.269.073 1.838 1.838 0 0 1 .039-.254c0-.025.01-.048.014-.072a1.517 1.517 0 0 0 .039-.294v-.009a.489.489 0 0 0-.067-.253.415.415 0 0 0-.163-.152.446.446 0 0 0-.2-.051z" class="prefix__cls-1" data-name="Tracé 464" transform="translate(-187.498 -131.956)"/>
    <path id="prefix__Tracé_465" d="M271.345 178.125l-.022.008a.358.358 0 0 0-.191.2.342.342 0 0 0 .007.273.365.365 0 0 0 .332.212.372.372 0 0 0 .149-.031l.015-.007a2.86 2.86 0 0 1 .915-.2h.011a.648.648 0 0 1 .461.138.37.37 0 0 0 .515 0 .353.353 0 0 0 0-.5 1.352 1.352 0 0 0-.974-.346 3.4 3.4 0 0 0-1.218.253z" class="prefix__cls-1" data-name="Tracé 465" transform="translate(-249.732 -169.822)"/>
    <path id="prefix__Tracé_466" d="M218.579 178.125a3.394 3.394 0 0 0-1.218-.265 1.354 1.354 0 0 0-.974.345.35.35 0 0 0-.107.252.345.345 0 0 0 .106.252.362.362 0 0 0 .259.106.368.368 0 0 0 .256-.1.648.648 0 0 1 .462-.139 2.438 2.438 0 0 1 .637.106c.1.029.176.056.224.075l.06.023.015.006a.367.367 0 0 0 .481-.181.355.355 0 0 0-.185-.47z" class="prefix__cls-1" data-name="Tracé 466" transform="translate(-199.897 -169.822)"/>
</svg>
